<svg width="360" height="800" viewBox="0 0 360 800" fill="none" xmlns="http://www.w3.org/2000/svg">
<rect x="0.5" y="0.5" width="359" height="799" fill="white"/>
<ellipse cx="180" cy="287.5" rx="150" ry="70.5" fill="#D9D9D9"/>
<g filter="url(#filter0_i_20_151)">
<ellipse cx="180" cy="288" rx="100" ry="47" fill="white"/>
</g>
<path d="M64.2788 285V255.909H80.4719V257.557H66.0543V269.616H79.6055V271.264H66.0543V283.352H80.8129V285H64.2788ZM101.086 267.884L99.4812 268.31C99.2255 267.514 98.8609 266.828 98.3874 266.25C97.9139 265.672 97.3174 265.227 96.5977 264.915C95.8874 264.593 95.0352 264.432 94.0408 264.432C92.4405 264.432 91.1289 264.83 90.1062 265.625C89.0929 266.42 88.5863 267.457 88.5863 268.736C88.5863 269.777 88.9319 270.639 89.6232 271.321C90.3145 271.993 91.3704 272.505 92.7908 272.855L96.1431 273.693C97.8666 274.119 99.1639 274.811 100.035 275.767C100.906 276.714 101.342 277.893 101.342 279.304C101.342 280.507 101.015 281.572 100.362 282.5C99.7085 283.428 98.8041 284.152 97.6488 284.673C96.503 285.194 95.1677 285.455 93.6431 285.455C91.6071 285.455 89.9357 284.981 88.6289 284.034C87.3221 283.078 86.484 281.709 86.1147 279.929L87.7766 279.503C88.0891 280.923 88.7378 282.008 89.7227 282.756C90.717 283.494 92.0191 283.864 93.6289 283.864C95.4092 283.864 96.8439 283.442 97.9329 282.599C99.0314 281.757 99.5806 280.677 99.5806 279.361C99.5806 278.357 99.2586 277.509 98.6147 276.818C97.9708 276.127 96.9954 275.62 95.6886 275.298L92.2085 274.446C90.4281 274.01 89.0929 273.314 88.2028 272.358C87.3126 271.392 86.8675 270.204 86.8675 268.793C86.8675 267.618 87.1753 266.586 87.7908 265.696C88.4064 264.806 89.2539 264.11 90.3335 263.608C91.413 263.106 92.6488 262.855 94.0408 262.855C95.8874 262.855 97.3931 263.291 98.5579 264.162C99.7227 265.033 100.565 266.274 101.086 267.884ZM115.848 285.455C113.879 285.455 112.165 284.967 110.706 283.991C109.248 283.016 108.121 281.681 107.326 279.986C106.53 278.291 106.132 276.359 106.132 274.19C106.132 272.012 106.53 270.071 107.326 268.366C108.131 266.662 109.234 265.317 110.635 264.332C112.037 263.348 113.637 262.855 115.436 262.855C116.658 262.855 117.813 263.101 118.902 263.594C120.001 264.077 120.967 264.777 121.8 265.696C122.643 266.615 123.301 267.723 123.775 269.02C124.257 270.317 124.499 271.776 124.499 273.395V274.474H107.226V272.898H122.766C122.766 271.316 122.444 269.891 121.8 268.622C121.156 267.353 120.28 266.345 119.172 265.597C118.064 264.848 116.819 264.474 115.436 264.474C113.988 264.474 112.695 264.882 111.559 265.696C110.432 266.501 109.537 267.59 108.874 268.963C108.221 270.336 107.88 271.87 107.851 273.565V274.276C107.851 276.094 108.168 277.727 108.803 279.176C109.447 280.616 110.365 281.757 111.559 282.599C112.752 283.433 114.182 283.849 115.848 283.849C117.042 283.849 118.06 283.651 118.902 283.253C119.755 282.846 120.451 282.353 120.99 281.776C121.53 281.198 121.937 280.639 122.212 280.099L123.789 280.739C123.457 281.468 122.941 282.197 122.24 282.926C121.549 283.646 120.668 284.247 119.598 284.73C118.538 285.213 117.288 285.455 115.848 285.455ZM130.465 285V263.182H132.155V266.477H132.326C132.742 265.379 133.462 264.508 134.485 263.864C135.507 263.22 136.739 262.898 138.178 262.898C139.759 262.898 141.033 263.277 141.999 264.034C142.974 264.792 143.675 265.819 144.101 267.116H144.257C144.684 265.838 145.446 264.815 146.544 264.048C147.652 263.281 149.016 262.898 150.635 262.898C152.747 262.898 154.357 263.565 155.465 264.901C156.582 266.226 157.141 268.045 157.141 270.355V285H155.408V270.355C155.408 268.537 154.972 267.107 154.101 266.065C153.23 265.024 151.952 264.503 150.266 264.503C148.467 264.503 147.084 265.066 146.118 266.193C145.152 267.32 144.669 268.755 144.669 270.497V285H142.936V270.241C142.936 268.546 142.51 267.169 141.658 266.108C140.806 265.038 139.527 264.503 137.823 264.503C136.667 264.503 135.668 264.768 134.826 265.298C133.992 265.829 133.344 266.558 132.88 267.486C132.425 268.414 132.198 269.479 132.198 270.682V285H130.465ZM165.838 276.477L165.809 273.991H166.264L177.173 263.182H179.431L169.417 273.125L169.247 273.196L165.838 276.477ZM164.332 285V255.909H166.065V285H164.332ZM177.67 285L168.466 273.366L169.716 272.216L179.886 285H177.67ZM190.348 285.469C189.088 285.469 187.933 285.218 186.882 284.716C185.84 284.214 185.002 283.48 184.368 282.514C183.743 281.548 183.43 280.374 183.43 278.991C183.43 278.082 183.591 277.282 183.913 276.591C184.235 275.9 184.732 275.303 185.404 274.801C186.077 274.299 186.939 273.887 187.99 273.565C189.041 273.234 190.296 272.978 191.754 272.798C192.862 272.666 193.851 272.538 194.723 272.415C195.594 272.282 196.276 272.079 196.768 271.804C197.27 271.529 197.521 271.113 197.521 270.554V269.645C197.521 268.054 197.019 266.79 196.015 265.852C195.011 264.915 193.629 264.446 191.868 264.446C190.305 264.446 188.989 264.792 187.919 265.483C186.858 266.165 186.115 267.045 185.689 268.125L184.055 267.514C184.472 266.473 185.073 265.606 185.859 264.915C186.654 264.223 187.564 263.707 188.586 263.366C189.618 263.026 190.698 262.855 191.825 262.855C192.8 262.855 193.728 262.992 194.609 263.267C195.499 263.542 196.29 263.958 196.981 264.517C197.682 265.076 198.236 265.791 198.643 266.662C199.05 267.524 199.254 268.556 199.254 269.759V285H197.521V281.065H197.393C197.014 281.88 196.493 282.623 195.831 283.295C195.177 283.958 194.386 284.489 193.458 284.886C192.54 285.275 191.503 285.469 190.348 285.469ZM190.518 283.864C191.882 283.864 193.089 283.532 194.14 282.869C195.201 282.197 196.029 281.278 196.626 280.114C197.223 278.949 197.521 277.628 197.521 276.151V272.94C197.303 273.13 196.986 273.3 196.569 273.452C196.162 273.594 195.698 273.722 195.177 273.835C194.666 273.939 194.126 274.034 193.558 274.119C192.999 274.195 192.455 274.266 191.924 274.332C190.333 274.522 189.036 274.815 188.032 275.213C187.038 275.601 186.309 276.113 185.845 276.747C185.39 277.382 185.163 278.149 185.163 279.048C185.163 280.535 185.674 281.709 186.697 282.571C187.72 283.433 188.993 283.864 190.518 283.864Z" fill="#E26868"/>
<path d="M112.4 321V291.909H121.363C123.2 291.909 124.781 292.269 126.107 292.989C127.433 293.708 128.451 294.707 129.161 295.986C129.871 297.255 130.227 298.732 130.227 300.418C130.227 302.084 129.871 303.552 129.161 304.821C128.451 306.08 127.433 307.065 126.107 307.776C124.791 308.486 123.214 308.841 121.377 308.841H113.352V307.179H121.335C122.831 307.179 124.109 306.9 125.17 306.341C126.23 305.782 127.045 305.001 127.613 303.997C128.181 302.984 128.465 301.791 128.465 300.418C128.465 299.035 128.181 297.832 127.613 296.81C127.045 295.777 126.226 294.977 125.156 294.409C124.095 293.841 122.817 293.557 121.32 293.557H114.175V321H112.4ZM124.346 307.818L131.505 321H129.46L122.343 307.818H124.346ZM144.985 321.455C143.015 321.455 141.301 320.967 139.843 319.991C138.385 319.016 137.258 317.681 136.462 315.986C135.667 314.291 135.269 312.359 135.269 310.19C135.269 308.012 135.667 306.071 136.462 304.366C137.267 302.662 138.371 301.317 139.772 300.332C141.174 299.348 142.774 298.855 144.573 298.855C145.795 298.855 146.95 299.101 148.039 299.594C149.138 300.077 150.103 300.777 150.937 301.696C151.78 302.615 152.438 303.723 152.911 305.02C153.394 306.317 153.636 307.776 153.636 309.395V310.474H136.363V308.898H151.903C151.903 307.316 151.581 305.891 150.937 304.622C150.293 303.353 149.417 302.345 148.309 301.597C147.201 300.848 145.956 300.474 144.573 300.474C143.124 300.474 141.832 300.882 140.695 301.696C139.568 302.501 138.674 303.59 138.011 304.963C137.357 306.336 137.016 307.87 136.988 309.565V310.276C136.988 312.094 137.305 313.727 137.94 315.176C138.584 316.616 139.502 317.757 140.695 318.599C141.888 319.433 143.318 319.849 144.985 319.849C146.178 319.849 147.196 319.651 148.039 319.253C148.891 318.846 149.587 318.353 150.127 317.776C150.667 317.198 151.074 316.639 151.349 316.099L152.925 316.739C152.594 317.468 152.078 318.197 151.377 318.926C150.686 319.646 149.805 320.247 148.735 320.73C147.674 321.213 146.424 321.455 144.985 321.455ZM173.465 303.884L171.86 304.31C171.604 303.514 171.24 302.828 170.766 302.25C170.293 301.672 169.696 301.227 168.977 300.915C168.266 300.593 167.414 300.432 166.42 300.432C164.819 300.432 163.508 300.83 162.485 301.625C161.472 302.42 160.965 303.457 160.965 304.736C160.965 305.777 161.311 306.639 162.002 307.321C162.693 307.993 163.749 308.505 165.17 308.855L168.522 309.693C170.246 310.119 171.543 310.811 172.414 311.767C173.285 312.714 173.721 313.893 173.721 315.304C173.721 316.507 173.394 317.572 172.741 318.5C172.087 319.428 171.183 320.152 170.028 320.673C168.882 321.194 167.547 321.455 166.022 321.455C163.986 321.455 162.315 320.981 161.008 320.034C159.701 319.078 158.863 317.709 158.494 315.929L160.156 315.503C160.468 316.923 161.117 318.008 162.102 318.756C163.096 319.494 164.398 319.864 166.008 319.864C167.788 319.864 169.223 319.442 170.312 318.599C171.41 317.757 171.96 316.677 171.96 315.361C171.96 314.357 171.638 313.509 170.994 312.818C170.35 312.127 169.374 311.62 168.067 311.298L164.587 310.446C162.807 310.01 161.472 309.314 160.582 308.358C159.692 307.392 159.246 306.204 159.246 304.793C159.246 303.618 159.554 302.586 160.17 301.696C160.785 300.806 161.633 300.11 162.712 299.608C163.792 299.106 165.028 298.855 166.42 298.855C168.266 298.855 169.772 299.291 170.937 300.162C172.102 301.033 172.944 302.274 173.465 303.884ZM187.432 299.182V300.73H177.901V299.182H187.432ZM181.125 293.955H182.844V315.844C182.844 316.734 183.014 317.463 183.355 318.031C183.705 318.59 184.16 319.007 184.719 319.281C185.287 319.546 185.893 319.679 186.537 319.679C186.849 319.679 187.119 319.655 187.347 319.608C187.583 319.561 187.806 319.499 188.014 319.423L188.44 321C188.175 321.095 187.882 321.175 187.56 321.241C187.238 321.317 186.859 321.355 186.423 321.355C185.514 321.355 184.652 321.152 183.838 320.744C183.033 320.337 182.38 319.745 181.878 318.969C181.376 318.192 181.125 317.255 181.125 316.156V293.955ZM199.641 321.469C198.381 321.469 197.226 321.218 196.175 320.716C195.133 320.214 194.295 319.48 193.661 318.514C193.036 317.548 192.723 316.374 192.723 314.991C192.723 314.082 192.884 313.282 193.206 312.591C193.528 311.9 194.025 311.303 194.697 310.801C195.37 310.299 196.232 309.887 197.283 309.565C198.334 309.234 199.589 308.978 201.047 308.798C202.155 308.666 203.144 308.538 204.016 308.415C204.887 308.282 205.569 308.079 206.061 307.804C206.563 307.529 206.814 307.113 206.814 306.554V305.645C206.814 304.054 206.312 302.79 205.308 301.852C204.304 300.915 202.922 300.446 201.161 300.446C199.598 300.446 198.282 300.792 197.212 301.483C196.151 302.165 195.408 303.045 194.982 304.125L193.348 303.514C193.765 302.473 194.366 301.606 195.152 300.915C195.947 300.223 196.857 299.707 197.879 299.366C198.911 299.026 199.991 298.855 201.118 298.855C202.093 298.855 203.021 298.992 203.902 299.267C204.792 299.542 205.583 299.958 206.274 300.517C206.975 301.076 207.529 301.791 207.936 302.662C208.343 303.524 208.547 304.556 208.547 305.759V321H206.814V317.065H206.686C206.307 317.88 205.786 318.623 205.124 319.295C204.47 319.958 203.679 320.489 202.751 320.886C201.833 321.275 200.796 321.469 199.641 321.469ZM199.811 319.864C201.175 319.864 202.382 319.532 203.433 318.869C204.494 318.197 205.322 317.278 205.919 316.114C206.516 314.949 206.814 313.628 206.814 312.151V308.94C206.596 309.13 206.279 309.3 205.862 309.452C205.455 309.594 204.991 309.722 204.47 309.835C203.959 309.939 203.419 310.034 202.851 310.119C202.292 310.195 201.748 310.266 201.217 310.332C199.626 310.522 198.329 310.815 197.325 311.213C196.331 311.601 195.602 312.113 195.138 312.747C194.683 313.382 194.456 314.149 194.456 315.048C194.456 316.535 194.967 317.709 195.99 318.571C197.013 319.433 198.286 319.864 199.811 319.864ZM229.79 313.259V299.182H231.523V321H229.79V317.463H229.648C229.136 318.59 228.308 319.509 227.162 320.219C226.026 320.929 224.681 321.284 223.128 321.284C221.698 321.284 220.434 320.972 219.335 320.347C218.237 319.722 217.375 318.836 216.75 317.69C216.125 316.535 215.812 315.162 215.812 313.571V299.182H217.545V313.5C217.545 315.318 218.095 316.791 219.193 317.918C220.301 319.035 221.731 319.594 223.483 319.594C224.619 319.594 225.666 319.338 226.622 318.827C227.579 318.315 228.346 317.586 228.923 316.639C229.501 315.683 229.79 314.556 229.79 313.259ZM238.703 321V299.182H240.393V302.591H240.55C241.023 301.473 241.823 300.579 242.95 299.906C244.077 299.224 245.36 298.884 246.8 298.884C246.951 298.884 247.103 298.884 247.254 298.884C247.406 298.884 247.548 298.888 247.68 298.898V300.645C247.567 300.635 247.429 300.621 247.268 300.602C247.117 300.574 246.928 300.56 246.7 300.56C245.488 300.56 244.409 300.82 243.462 301.341C242.524 301.862 241.786 302.581 241.246 303.5C240.706 304.409 240.436 305.451 240.436 306.625V321H238.703ZM258.117 321.469C256.858 321.469 255.702 321.218 254.651 320.716C253.61 320.214 252.772 319.48 252.137 318.514C251.512 317.548 251.2 316.374 251.2 314.991C251.2 314.082 251.361 313.282 251.683 312.591C252.004 311.9 252.502 311.303 253.174 310.801C253.846 310.299 254.708 309.887 255.759 309.565C256.81 309.234 258.065 308.978 259.523 308.798C260.631 308.666 261.621 308.538 262.492 308.415C263.363 308.282 264.045 308.079 264.538 307.804C265.04 307.529 265.29 307.113 265.29 306.554V305.645C265.29 304.054 264.789 302.79 263.785 301.852C262.781 300.915 261.398 300.446 259.637 300.446C258.075 300.446 256.758 300.792 255.688 301.483C254.628 302.165 253.884 303.045 253.458 304.125L251.825 303.514C252.241 302.473 252.843 301.606 253.629 300.915C254.424 300.223 255.333 299.707 256.356 299.366C257.388 299.026 258.468 298.855 259.594 298.855C260.57 298.855 261.498 298.992 262.379 299.267C263.269 299.542 264.059 299.958 264.751 300.517C265.451 301.076 266.005 301.791 266.413 302.662C266.82 303.524 267.023 304.556 267.023 305.759V321H265.29V317.065H265.163C264.784 317.88 264.263 318.623 263.6 319.295C262.947 319.958 262.156 320.489 261.228 320.886C260.309 321.275 259.272 321.469 258.117 321.469ZM258.288 319.864C259.651 319.864 260.859 319.532 261.91 318.869C262.97 318.197 263.799 317.278 264.396 316.114C264.992 314.949 265.29 313.628 265.29 312.151V308.94C265.073 309.13 264.755 309.3 264.339 309.452C263.932 309.594 263.468 309.722 262.947 309.835C262.435 309.939 261.896 310.034 261.327 310.119C260.769 310.195 260.224 310.266 259.694 310.332C258.103 310.522 256.806 310.815 255.802 311.213C254.808 311.601 254.078 312.113 253.614 312.747C253.16 313.382 252.933 314.149 252.933 315.048C252.933 316.535 253.444 317.709 254.467 318.571C255.489 319.433 256.763 319.864 258.288 319.864ZM276.022 306.852V321H274.289V299.182H275.979V302.634H276.15C276.661 301.507 277.48 300.602 278.607 299.92C279.734 299.239 281.074 298.898 282.627 298.898C284.095 298.898 285.383 299.21 286.491 299.835C287.608 300.46 288.479 301.35 289.104 302.506C289.739 303.652 290.056 305.02 290.056 306.611V321H288.323V306.682C288.323 304.826 287.769 303.334 286.661 302.207C285.563 301.071 284.109 300.503 282.3 300.503C281.088 300.503 280.009 300.768 279.062 301.298C278.115 301.829 277.371 302.572 276.832 303.528C276.292 304.475 276.022 305.583 276.022 306.852ZM304.971 299.182V300.73H295.44V299.182H304.971ZM298.664 293.955H300.383V315.844C300.383 316.734 300.553 317.463 300.894 318.031C301.245 318.59 301.699 319.007 302.258 319.281C302.826 319.546 303.432 319.679 304.076 319.679C304.388 319.679 304.658 319.655 304.886 319.608C305.122 319.561 305.345 319.499 305.553 319.423L305.979 321C305.714 321.095 305.421 321.175 305.099 321.241C304.777 321.317 304.398 321.355 303.962 321.355C303.053 321.355 302.192 321.152 301.377 320.744C300.572 320.337 299.919 319.745 299.417 318.969C298.915 318.192 298.664 317.255 298.664 316.156V293.955Z" fill="#E26868"/>
<rect x="31" y="394" width="298" height="48" rx="4" stroke="#E26868" stroke-width="2"/>
<rect x="46" y="383" width="97" height="21" fill="white"/>
<path d="M56.8182 388.364V400H55.4091V388.364H56.8182ZM60.8026 394.75V400H59.4616V391.273H60.7571V392.636H60.8707C61.0753 392.193 61.3859 391.837 61.8026 391.568C62.2192 391.295 62.7571 391.159 63.4162 391.159C64.0071 391.159 64.5241 391.28 64.9673 391.523C65.4105 391.761 65.7552 392.125 66.0014 392.614C66.2476 393.098 66.3707 393.712 66.3707 394.455V400H65.0298V394.545C65.0298 393.86 64.8518 393.326 64.4957 392.943C64.1397 392.557 63.651 392.364 63.0298 392.364C62.6018 392.364 62.2192 392.456 61.8821 392.642C61.5488 392.828 61.2855 393.098 61.0923 393.455C60.8991 393.811 60.8026 394.242 60.8026 394.75ZM68.821 403.273V391.273H70.1165V392.659H70.2756C70.3741 392.508 70.5104 392.314 70.6847 392.08C70.8627 391.841 71.1165 391.629 71.446 391.443C71.7794 391.254 72.2301 391.159 72.7983 391.159C73.5331 391.159 74.1809 391.343 74.7415 391.71C75.3021 392.078 75.7396 392.598 76.054 393.273C76.3684 393.947 76.5256 394.742 76.5256 395.659C76.5256 396.583 76.3684 397.384 76.054 398.062C75.7396 398.737 75.304 399.259 74.7472 399.631C74.1903 399.998 73.5483 400.182 72.821 400.182C72.2604 400.182 71.8116 400.089 71.4744 399.903C71.1373 399.714 70.8778 399.5 70.696 399.261C70.5142 399.019 70.3741 398.818 70.2756 398.659H70.1619V403.273H68.821ZM70.1392 395.636C70.1392 396.295 70.2358 396.877 70.429 397.381C70.6222 397.881 70.9044 398.273 71.2756 398.557C71.6468 398.837 72.1013 398.977 72.6392 398.977C73.1998 398.977 73.6676 398.83 74.0426 398.534C74.4214 398.235 74.7055 397.833 74.8949 397.33C75.0881 396.822 75.1847 396.258 75.1847 395.636C75.1847 395.023 75.09 394.47 74.9006 393.977C74.715 393.481 74.4328 393.089 74.054 392.801C73.679 392.509 73.2074 392.364 72.6392 392.364C72.0938 392.364 71.6354 392.502 71.2642 392.778C70.893 393.051 70.6127 393.434 70.4233 393.926C70.2339 394.415 70.1392 394.985 70.1392 395.636ZM84.071 396.432V391.273H85.4119V400H84.071V398.523H83.9801C83.7756 398.966 83.4574 399.343 83.0256 399.653C82.5938 399.96 82.0483 400.114 81.3892 400.114C80.8438 400.114 80.3589 399.994 79.9347 399.756C79.5104 399.513 79.1771 399.15 78.9347 398.665C78.6922 398.176 78.571 397.561 78.571 396.818V391.273H79.9119V396.727C79.9119 397.364 80.09 397.871 80.446 398.25C80.8059 398.629 81.2642 398.818 81.821 398.818C82.1544 398.818 82.4934 398.733 82.8381 398.562C83.1866 398.392 83.4782 398.131 83.7131 397.778C83.9517 397.426 84.071 396.977 84.071 396.432ZM91.6634 391.273V392.409H87.1406V391.273H91.6634ZM88.4588 389.182H89.7997V397.5C89.7997 397.879 89.8546 398.163 89.9645 398.352C90.0781 398.538 90.2221 398.663 90.3963 398.727C90.5743 398.788 90.7618 398.818 90.9588 398.818C91.1065 398.818 91.2277 398.811 91.3224 398.795C91.4171 398.777 91.4929 398.761 91.5497 398.75L91.8224 399.955C91.7315 399.989 91.6046 400.023 91.4418 400.057C91.2789 400.095 91.0724 400.114 90.8224 400.114C90.4437 400.114 90.0724 400.032 89.7088 399.869C89.349 399.706 89.0497 399.458 88.8111 399.125C88.5762 398.792 88.4588 398.371 88.4588 397.864V389.182ZM98.3622 400V388.364H105.385V389.614H99.7713V393.545H105.021V394.795H99.7713V398.75H105.476V400H98.3622ZM107.743 400V391.273H109.038V392.636H109.152C109.334 392.17 109.627 391.809 110.033 391.551C110.438 391.29 110.925 391.159 111.493 391.159C112.069 391.159 112.548 391.29 112.93 391.551C113.317 391.809 113.618 392.17 113.834 392.636H113.925C114.148 392.186 114.483 391.828 114.93 391.562C115.377 391.294 115.913 391.159 116.538 391.159C117.319 391.159 117.957 391.403 118.453 391.892C118.949 392.377 119.197 393.133 119.197 394.159V400H117.857V394.159C117.857 393.515 117.68 393.055 117.328 392.778C116.976 392.502 116.561 392.364 116.084 392.364C115.47 392.364 114.995 392.549 114.658 392.92C114.321 393.288 114.152 393.754 114.152 394.318V400H112.788V394.023C112.788 393.527 112.627 393.127 112.305 392.824C111.983 392.517 111.569 392.364 111.061 392.364C110.713 392.364 110.387 392.456 110.084 392.642C109.785 392.828 109.542 393.085 109.357 393.415C109.175 393.741 109.084 394.117 109.084 394.545V400H107.743ZM124.217 400.205C123.664 400.205 123.162 400.1 122.712 399.892C122.261 399.68 121.903 399.375 121.638 398.977C121.373 398.576 121.24 398.091 121.24 397.523C121.24 397.023 121.339 396.617 121.536 396.307C121.732 395.992 121.996 395.746 122.325 395.568C122.655 395.39 123.018 395.258 123.416 395.17C123.818 395.08 124.221 395.008 124.626 394.955C125.157 394.886 125.587 394.835 125.916 394.801C126.25 394.763 126.492 394.701 126.643 394.614C126.799 394.527 126.876 394.375 126.876 394.159V394.114C126.876 393.553 126.723 393.117 126.416 392.807C126.113 392.496 125.653 392.341 125.036 392.341C124.395 392.341 123.893 392.481 123.53 392.761C123.166 393.042 122.911 393.341 122.763 393.659L121.49 393.205C121.717 392.674 122.02 392.261 122.399 391.966C122.782 391.667 123.198 391.458 123.649 391.341C124.104 391.22 124.551 391.159 124.99 391.159C125.27 391.159 125.592 391.193 125.956 391.261C126.323 391.326 126.678 391.46 127.018 391.665C127.363 391.869 127.649 392.178 127.876 392.591C128.104 393.004 128.217 393.557 128.217 394.25V400H126.876V398.818H126.808C126.717 399.008 126.566 399.21 126.354 399.426C126.142 399.642 125.859 399.826 125.507 399.977C125.155 400.129 124.725 400.205 124.217 400.205ZM124.422 399C124.952 399 125.399 398.896 125.763 398.688C126.13 398.479 126.407 398.21 126.592 397.881C126.782 397.551 126.876 397.205 126.876 396.841V395.614C126.82 395.682 126.695 395.744 126.501 395.801C126.312 395.854 126.092 395.902 125.842 395.943C125.596 395.981 125.356 396.015 125.121 396.045C124.89 396.072 124.702 396.095 124.558 396.114C124.21 396.159 123.884 396.233 123.581 396.335C123.282 396.434 123.039 396.583 122.854 396.784C122.672 396.981 122.581 397.25 122.581 397.591C122.581 398.057 122.753 398.409 123.098 398.648C123.446 398.883 123.888 399 124.422 399ZM130.665 400V391.273H132.006V400H130.665ZM131.347 389.818C131.085 389.818 130.86 389.729 130.67 389.551C130.485 389.373 130.392 389.159 130.392 388.909C130.392 388.659 130.485 388.445 130.67 388.267C130.86 388.089 131.085 388 131.347 388C131.608 388 131.831 388.089 132.017 388.267C132.206 388.445 132.301 388.659 132.301 388.909C132.301 389.159 132.206 389.373 132.017 389.551C131.831 389.729 131.608 389.818 131.347 389.818ZM135.803 388.364V400H134.462V388.364H135.803Z" fill="#E26868"/>
<rect x="31" y="464" width="298" height="48" rx="4" stroke="#E26868" stroke-width="2"/>
<rect x="46" y="453" width="133" height="21" fill="white"/>
<path d="M56.8182 458.364V470H55.4091V458.364H56.8182ZM60.8026 464.75V470H59.4616V461.273H60.7571V462.636H60.8707C61.0753 462.193 61.3859 461.837 61.8026 461.568C62.2192 461.295 62.7571 461.159 63.4162 461.159C64.0071 461.159 64.5241 461.28 64.9673 461.523C65.4105 461.761 65.7552 462.125 66.0014 462.614C66.2476 463.098 66.3707 463.712 66.3707 464.455V470H65.0298V464.545C65.0298 463.86 64.8518 463.326 64.4957 462.943C64.1397 462.557 63.651 462.364 63.0298 462.364C62.6018 462.364 62.2192 462.456 61.8821 462.642C61.5488 462.828 61.2855 463.098 61.0923 463.455C60.8991 463.811 60.8026 464.242 60.8026 464.75ZM68.821 473.273V461.273H70.1165V462.659H70.2756C70.3741 462.508 70.5104 462.314 70.6847 462.08C70.8627 461.841 71.1165 461.629 71.446 461.443C71.7794 461.254 72.2301 461.159 72.7983 461.159C73.5331 461.159 74.1809 461.343 74.7415 461.71C75.3021 462.078 75.7396 462.598 76.054 463.273C76.3684 463.947 76.5256 464.742 76.5256 465.659C76.5256 466.583 76.3684 467.384 76.054 468.062C75.7396 468.737 75.304 469.259 74.7472 469.631C74.1903 469.998 73.5483 470.182 72.821 470.182C72.2604 470.182 71.8116 470.089 71.4744 469.903C71.1373 469.714 70.8778 469.5 70.696 469.261C70.5142 469.019 70.3741 468.818 70.2756 468.659H70.1619V473.273H68.821ZM70.1392 465.636C70.1392 466.295 70.2358 466.877 70.429 467.381C70.6222 467.881 70.9044 468.273 71.2756 468.557C71.6468 468.837 72.1013 468.977 72.6392 468.977C73.1998 468.977 73.6676 468.83 74.0426 468.534C74.4214 468.235 74.7055 467.833 74.8949 467.33C75.0881 466.822 75.1847 466.258 75.1847 465.636C75.1847 465.023 75.09 464.47 74.9006 463.977C74.715 463.481 74.4328 463.089 74.054 462.801C73.679 462.509 73.2074 462.364 72.6392 462.364C72.0938 462.364 71.6354 462.502 71.2642 462.778C70.893 463.051 70.6127 463.434 70.4233 463.926C70.2339 464.415 70.1392 464.985 70.1392 465.636ZM84.071 466.432V461.273H85.4119V470H84.071V468.523H83.9801C83.7756 468.966 83.4574 469.343 83.0256 469.653C82.5938 469.96 82.0483 470.114 81.3892 470.114C80.8438 470.114 80.3589 469.994 79.9347 469.756C79.5104 469.513 79.1771 469.15 78.9347 468.665C78.6922 468.176 78.571 467.561 78.571 466.818V461.273H79.9119V466.727C79.9119 467.364 80.09 467.871 80.446 468.25C80.8059 468.629 81.2642 468.818 81.821 468.818C82.1544 468.818 82.4934 468.733 82.8381 468.562C83.1866 468.392 83.4782 468.131 83.7131 467.778C83.9517 467.426 84.071 466.977 84.071 466.432ZM91.6634 461.273V462.409H87.1406V461.273H91.6634ZM88.4588 459.182H89.7997V467.5C89.7997 467.879 89.8546 468.163 89.9645 468.352C90.0781 468.538 90.2221 468.663 90.3963 468.727C90.5743 468.788 90.7618 468.818 90.9588 468.818C91.1065 468.818 91.2277 468.811 91.3224 468.795C91.4171 468.777 91.4929 468.761 91.5497 468.75L91.8224 469.955C91.7315 469.989 91.6046 470.023 91.4418 470.057C91.2789 470.095 91.0724 470.114 90.8224 470.114C90.4437 470.114 90.0724 470.032 89.7088 469.869C89.349 469.706 89.0497 469.458 88.8111 469.125C88.5762 468.792 88.4588 468.371 88.4588 467.864V459.182ZM98.3622 470V458.364H102.294C103.207 458.364 103.953 458.528 104.533 458.858C105.116 459.184 105.548 459.625 105.828 460.182C106.108 460.739 106.249 461.36 106.249 462.045C106.249 462.731 106.108 463.354 105.828 463.915C105.552 464.475 105.124 464.922 104.544 465.256C103.964 465.585 103.222 465.75 102.317 465.75H99.4986V464.5H102.271C102.896 464.5 103.398 464.392 103.777 464.176C104.156 463.96 104.43 463.669 104.601 463.301C104.775 462.93 104.862 462.511 104.862 462.045C104.862 461.58 104.775 461.163 104.601 460.795C104.43 460.428 104.154 460.14 103.771 459.932C103.389 459.72 102.881 459.614 102.249 459.614H99.7713V470H98.3622ZM110.905 470.205C110.352 470.205 109.85 470.1 109.399 469.892C108.948 469.68 108.59 469.375 108.325 468.977C108.06 468.576 107.928 468.091 107.928 467.523C107.928 467.023 108.026 466.617 108.223 466.307C108.42 465.992 108.683 465.746 109.013 465.568C109.342 465.39 109.706 465.258 110.104 465.17C110.505 465.08 110.909 465.008 111.314 464.955C111.844 464.886 112.274 464.835 112.604 464.801C112.937 464.763 113.179 464.701 113.331 464.614C113.486 464.527 113.564 464.375 113.564 464.159V464.114C113.564 463.553 113.411 463.117 113.104 462.807C112.801 462.496 112.34 462.341 111.723 462.341C111.083 462.341 110.581 462.481 110.217 462.761C109.854 463.042 109.598 463.341 109.45 463.659L108.178 463.205C108.405 462.674 108.708 462.261 109.087 461.966C109.469 461.667 109.886 461.458 110.337 461.341C110.791 461.22 111.238 461.159 111.678 461.159C111.958 461.159 112.28 461.193 112.643 461.261C113.011 461.326 113.365 461.46 113.706 461.665C114.051 461.869 114.337 462.178 114.564 462.591C114.791 463.004 114.905 463.557 114.905 464.25V470H113.564V468.818H113.496C113.405 469.008 113.253 469.21 113.041 469.426C112.829 469.642 112.547 469.826 112.195 469.977C111.842 470.129 111.412 470.205 110.905 470.205ZM111.109 469C111.64 469 112.087 468.896 112.45 468.688C112.818 468.479 113.094 468.21 113.28 467.881C113.469 467.551 113.564 467.205 113.564 466.841V465.614C113.507 465.682 113.382 465.744 113.189 465.801C113 465.854 112.78 465.902 112.53 465.943C112.284 465.981 112.043 466.015 111.808 466.045C111.577 466.072 111.39 466.095 111.246 466.114C110.897 466.159 110.571 466.233 110.268 466.335C109.969 466.434 109.727 466.583 109.541 466.784C109.359 466.981 109.268 467.25 109.268 467.591C109.268 468.057 109.441 468.409 109.786 468.648C110.134 468.883 110.575 469 111.109 469ZM123.534 463.227L122.33 463.568C122.254 463.367 122.142 463.172 121.994 462.983C121.85 462.79 121.653 462.631 121.403 462.506C121.153 462.381 120.833 462.318 120.443 462.318C119.909 462.318 119.464 462.441 119.108 462.688C118.756 462.93 118.58 463.239 118.58 463.614C118.58 463.947 118.701 464.21 118.943 464.403C119.186 464.597 119.564 464.758 120.08 464.886L121.375 465.205C122.155 465.394 122.737 465.684 123.119 466.074C123.502 466.46 123.693 466.958 123.693 467.568C123.693 468.068 123.549 468.515 123.261 468.909C122.977 469.303 122.58 469.614 122.068 469.841C121.557 470.068 120.962 470.182 120.284 470.182C119.394 470.182 118.657 469.989 118.074 469.602C117.491 469.216 117.121 468.652 116.966 467.909L118.239 467.591C118.36 468.061 118.589 468.413 118.926 468.648C119.267 468.883 119.712 469 120.261 469C120.886 469 121.383 468.867 121.75 468.602C122.121 468.333 122.307 468.011 122.307 467.636C122.307 467.333 122.201 467.08 121.989 466.875C121.777 466.667 121.451 466.511 121.011 466.409L119.557 466.068C118.758 465.879 118.17 465.585 117.795 465.188C117.424 464.786 117.239 464.284 117.239 463.682C117.239 463.189 117.377 462.754 117.653 462.375C117.934 461.996 118.314 461.699 118.795 461.483C119.28 461.267 119.83 461.159 120.443 461.159C121.307 461.159 121.985 461.348 122.477 461.727C122.973 462.106 123.326 462.606 123.534 463.227ZM131.893 463.227L130.689 463.568C130.613 463.367 130.501 463.172 130.354 462.983C130.21 462.79 130.013 462.631 129.763 462.506C129.513 462.381 129.193 462.318 128.803 462.318C128.268 462.318 127.823 462.441 127.467 462.688C127.115 462.93 126.939 463.239 126.939 463.614C126.939 463.947 127.06 464.21 127.303 464.403C127.545 464.597 127.924 464.758 128.439 464.886L129.734 465.205C130.515 465.394 131.096 465.684 131.479 466.074C131.861 466.46 132.053 466.958 132.053 467.568C132.053 468.068 131.909 468.515 131.621 468.909C131.337 469.303 130.939 469.614 130.428 469.841C129.916 470.068 129.321 470.182 128.643 470.182C127.753 470.182 127.017 469.989 126.433 469.602C125.85 469.216 125.481 468.652 125.325 467.909L126.598 467.591C126.719 468.061 126.948 468.413 127.286 468.648C127.626 468.883 128.071 469 128.621 469C129.246 469 129.742 468.867 130.109 468.602C130.481 468.333 130.666 468.011 130.666 467.636C130.666 467.333 130.56 467.08 130.348 466.875C130.136 466.667 129.81 466.511 129.371 466.409L127.916 466.068C127.117 465.879 126.53 465.585 126.155 465.188C125.784 464.786 125.598 464.284 125.598 463.682C125.598 463.189 125.736 462.754 126.013 462.375C126.293 461.996 126.674 461.699 127.155 461.483C127.64 461.267 128.189 461.159 128.803 461.159C129.666 461.159 130.344 461.348 130.837 461.727C131.333 462.106 131.685 462.606 131.893 463.227ZM136.048 470L133.389 461.273H134.798L136.685 467.955H136.776L138.639 461.273H140.071L141.912 467.932H142.003L143.889 461.273H145.298L142.639 470H141.321L139.412 463.295H139.276L137.366 470H136.048ZM150.32 470.182C149.532 470.182 148.84 469.994 148.246 469.619C147.655 469.244 147.193 468.72 146.859 468.045C146.53 467.371 146.365 466.583 146.365 465.682C146.365 464.773 146.53 463.979 146.859 463.301C147.193 462.623 147.655 462.097 148.246 461.722C148.84 461.347 149.532 461.159 150.32 461.159C151.107 461.159 151.797 461.347 152.388 461.722C152.982 462.097 153.445 462.623 153.774 463.301C154.107 463.979 154.274 464.773 154.274 465.682C154.274 466.583 154.107 467.371 153.774 468.045C153.445 468.72 152.982 469.244 152.388 469.619C151.797 469.994 151.107 470.182 150.32 470.182ZM150.32 468.977C150.918 468.977 151.411 468.824 151.797 468.517C152.183 468.21 152.469 467.807 152.655 467.307C152.84 466.807 152.933 466.265 152.933 465.682C152.933 465.098 152.84 464.555 152.655 464.051C152.469 463.547 152.183 463.14 151.797 462.83C151.411 462.519 150.918 462.364 150.32 462.364C149.721 462.364 149.229 462.519 148.842 462.83C148.456 463.14 148.17 463.547 147.984 464.051C147.799 464.555 147.706 465.098 147.706 465.682C147.706 466.265 147.799 466.807 147.984 467.307C148.17 467.807 148.456 468.21 148.842 468.517C149.229 468.824 149.721 468.977 150.32 468.977ZM156.321 470V461.273H157.616V462.591H157.707C157.866 462.159 158.154 461.809 158.571 461.54C158.988 461.271 159.457 461.136 159.98 461.136C160.079 461.136 160.202 461.138 160.349 461.142C160.497 461.146 160.609 461.152 160.685 461.159V462.523C160.639 462.511 160.535 462.494 160.372 462.472C160.213 462.445 160.045 462.432 159.866 462.432C159.442 462.432 159.063 462.521 158.73 462.699C158.401 462.873 158.139 463.116 157.946 463.426C157.757 463.733 157.662 464.083 157.662 464.477V470H156.321ZM165.304 470.182C164.577 470.182 163.935 469.998 163.378 469.631C162.821 469.259 162.385 468.737 162.071 468.062C161.757 467.384 161.599 466.583 161.599 465.659C161.599 464.742 161.757 463.947 162.071 463.273C162.385 462.598 162.823 462.078 163.384 461.71C163.944 461.343 164.592 461.159 165.327 461.159C165.895 461.159 166.344 461.254 166.673 461.443C167.007 461.629 167.26 461.841 167.435 462.08C167.613 462.314 167.751 462.508 167.849 462.659H167.963V458.364H169.304V470H168.009V468.659H167.849C167.751 468.818 167.611 469.019 167.429 469.261C167.247 469.5 166.988 469.714 166.651 469.903C166.313 470.089 165.865 470.182 165.304 470.182ZM165.486 468.977C166.024 468.977 166.478 468.837 166.849 468.557C167.221 468.273 167.503 467.881 167.696 467.381C167.889 466.877 167.986 466.295 167.986 465.636C167.986 464.985 167.891 464.415 167.702 463.926C167.512 463.434 167.232 463.051 166.861 462.778C166.49 462.502 166.031 462.364 165.486 462.364C164.918 462.364 164.444 462.509 164.065 462.801C163.69 463.089 163.408 463.481 163.219 463.977C163.033 464.47 162.94 465.023 162.94 465.636C162.94 466.258 163.035 466.822 163.224 467.33C163.418 467.833 163.702 468.235 164.077 468.534C164.455 468.83 164.925 468.977 165.486 468.977Z" fill="#E26868"/>
<rect x="31" y="534" width="298" height="48" rx="4" fill="#FF8787" stroke="#E26868" stroke-width="2"/>
<path d="M160.683 564V552.364H162.092V562.75H167.501V564H160.683ZM173.046 564.182C172.258 564.182 171.567 563.994 170.972 563.619C170.381 563.244 169.919 562.72 169.586 562.045C169.256 561.371 169.092 560.583 169.092 559.682C169.092 558.773 169.256 557.979 169.586 557.301C169.919 556.623 170.381 556.097 170.972 555.722C171.567 555.347 172.258 555.159 173.046 555.159C173.834 555.159 174.523 555.347 175.114 555.722C175.709 556.097 176.171 556.623 176.501 557.301C176.834 557.979 177.001 558.773 177.001 559.682C177.001 560.583 176.834 561.371 176.501 562.045C176.171 562.72 175.709 563.244 175.114 563.619C174.523 563.994 173.834 564.182 173.046 564.182ZM173.046 562.977C173.645 562.977 174.137 562.824 174.523 562.517C174.91 562.21 175.196 561.807 175.381 561.307C175.567 560.807 175.66 560.265 175.66 559.682C175.66 559.098 175.567 558.555 175.381 558.051C175.196 557.547 174.91 557.14 174.523 556.83C174.137 556.519 173.645 556.364 173.046 556.364C172.448 556.364 171.955 556.519 171.569 556.83C171.183 557.14 170.897 557.547 170.711 558.051C170.525 558.555 170.433 559.098 170.433 559.682C170.433 560.265 170.525 560.807 170.711 561.307C170.897 561.807 171.183 562.21 171.569 562.517C171.955 562.824 172.448 562.977 173.046 562.977ZM182.57 567.455C181.923 567.455 181.366 567.371 180.9 567.205C180.434 567.042 180.046 566.826 179.735 566.557C179.428 566.292 179.184 566.008 179.002 565.705L180.07 564.955C180.192 565.114 180.345 565.295 180.531 565.5C180.716 565.708 180.97 565.888 181.292 566.04C181.618 566.195 182.044 566.273 182.57 566.273C183.275 566.273 183.856 566.102 184.315 565.761C184.773 565.42 185.002 564.886 185.002 564.159V562.386H184.888C184.79 562.545 184.65 562.742 184.468 562.977C184.29 563.208 184.032 563.415 183.695 563.597C183.362 563.775 182.911 563.864 182.343 563.864C181.638 563.864 181.006 563.697 180.445 563.364C179.888 563.03 179.447 562.545 179.121 561.909C178.799 561.273 178.638 560.5 178.638 559.591C178.638 558.697 178.796 557.919 179.11 557.256C179.424 556.589 179.862 556.074 180.423 555.71C180.983 555.343 181.631 555.159 182.366 555.159C182.934 555.159 183.385 555.254 183.718 555.443C184.055 555.629 184.313 555.841 184.491 556.08C184.673 556.314 184.813 556.508 184.911 556.659H185.048V555.273H186.343V564.25C186.343 565 186.173 565.61 185.832 566.08C185.495 566.553 185.04 566.9 184.468 567.119C183.9 567.343 183.267 567.455 182.57 567.455ZM182.525 562.659C183.063 562.659 183.517 562.536 183.888 562.29C184.26 562.044 184.542 561.689 184.735 561.227C184.928 560.765 185.025 560.212 185.025 559.568C185.025 558.939 184.93 558.384 184.741 557.903C184.551 557.422 184.271 557.045 183.9 556.773C183.529 556.5 183.07 556.364 182.525 556.364C181.957 556.364 181.483 556.508 181.104 556.795C180.729 557.083 180.447 557.47 180.258 557.955C180.072 558.439 179.979 558.977 179.979 559.568C179.979 560.174 180.074 560.71 180.263 561.176C180.457 561.638 180.741 562.002 181.116 562.267C181.495 562.528 181.964 562.659 182.525 562.659ZM188.798 564V555.273H190.138V564H188.798ZM189.479 553.818C189.218 553.818 188.993 553.729 188.803 553.551C188.618 553.373 188.525 553.159 188.525 552.909C188.525 552.659 188.618 552.445 188.803 552.267C188.993 552.089 189.218 552 189.479 552C189.741 552 189.964 552.089 190.15 552.267C190.339 552.445 190.434 552.659 190.434 552.909C190.434 553.159 190.339 553.373 190.15 553.551C189.964 553.729 189.741 553.818 189.479 553.818ZM193.935 558.75V564H192.594V555.273H193.89V556.636H194.004C194.208 556.193 194.519 555.837 194.935 555.568C195.352 555.295 195.89 555.159 196.549 555.159C197.14 555.159 197.657 555.28 198.1 555.523C198.543 555.761 198.888 556.125 199.134 556.614C199.38 557.098 199.504 557.712 199.504 558.455V564H198.163V558.545C198.163 557.86 197.985 557.326 197.629 556.943C197.272 556.557 196.784 556.364 196.163 556.364C195.735 556.364 195.352 556.456 195.015 556.642C194.682 556.828 194.418 557.098 194.225 557.455C194.032 557.811 193.935 558.242 193.935 558.75Z" fill="black"/>
<rect x="31" y="719" width="298" height="48" rx="4" fill="#FF8787" stroke="#E26868" stroke-width="2"/>
<path d="M110.628 749V737.364H112.037V747.75H117.446V749H110.628ZM122.991 749.182C122.204 749.182 121.512 748.994 120.918 748.619C120.327 748.244 119.865 747.72 119.531 747.045C119.202 746.371 119.037 745.583 119.037 744.682C119.037 743.773 119.202 742.979 119.531 742.301C119.865 741.623 120.327 741.097 120.918 740.722C121.512 740.347 122.204 740.159 122.991 740.159C123.779 740.159 124.469 740.347 125.06 740.722C125.654 741.097 126.116 741.623 126.446 742.301C126.779 742.979 126.946 743.773 126.946 744.682C126.946 745.583 126.779 746.371 126.446 747.045C126.116 747.72 125.654 748.244 125.06 748.619C124.469 748.994 123.779 749.182 122.991 749.182ZM122.991 747.977C123.59 747.977 124.082 747.824 124.469 747.517C124.855 747.21 125.141 746.807 125.327 746.307C125.512 745.807 125.605 745.265 125.605 744.682C125.605 744.098 125.512 743.555 125.327 743.051C125.141 742.547 124.855 742.14 124.469 741.83C124.082 741.519 123.59 741.364 122.991 741.364C122.393 741.364 121.901 741.519 121.514 741.83C121.128 742.14 120.842 742.547 120.656 743.051C120.471 743.555 120.378 744.098 120.378 744.682C120.378 745.265 120.471 745.807 120.656 746.307C120.842 746.807 121.128 747.21 121.514 747.517C121.901 747.824 122.393 747.977 122.991 747.977ZM132.516 752.455C131.868 752.455 131.311 752.371 130.845 752.205C130.379 752.042 129.991 751.826 129.68 751.557C129.374 751.292 129.129 751.008 128.947 750.705L130.016 749.955C130.137 750.114 130.29 750.295 130.476 750.5C130.661 750.708 130.915 750.888 131.237 751.04C131.563 751.195 131.989 751.273 132.516 751.273C133.22 751.273 133.802 751.102 134.26 750.761C134.718 750.42 134.947 749.886 134.947 749.159V747.386H134.834C134.735 747.545 134.595 747.742 134.413 747.977C134.235 748.208 133.978 748.415 133.641 748.597C133.307 748.775 132.857 748.864 132.288 748.864C131.584 748.864 130.951 748.697 130.391 748.364C129.834 748.03 129.393 747.545 129.067 746.909C128.745 746.273 128.584 745.5 128.584 744.591C128.584 743.697 128.741 742.919 129.055 742.256C129.37 741.589 129.807 741.074 130.368 740.71C130.929 740.343 131.576 740.159 132.311 740.159C132.879 740.159 133.33 740.254 133.663 740.443C134 740.629 134.258 740.841 134.436 741.08C134.618 741.314 134.758 741.508 134.857 741.659H134.993V740.273H136.288V749.25C136.288 750 136.118 750.61 135.777 751.08C135.44 751.553 134.985 751.9 134.413 752.119C133.845 752.343 133.213 752.455 132.516 752.455ZM132.47 747.659C133.008 747.659 133.463 747.536 133.834 747.29C134.205 747.044 134.487 746.689 134.68 746.227C134.874 745.765 134.97 745.212 134.97 744.568C134.97 743.939 134.875 743.384 134.686 742.903C134.497 742.422 134.216 742.045 133.845 741.773C133.474 741.5 133.016 741.364 132.47 741.364C131.902 741.364 131.429 741.508 131.05 741.795C130.675 742.083 130.393 742.47 130.203 742.955C130.018 743.439 129.925 743.977 129.925 744.568C129.925 745.174 130.019 745.71 130.209 746.176C130.402 746.638 130.686 747.002 131.061 747.267C131.44 747.528 131.91 747.659 132.47 747.659ZM138.743 749V740.273H140.084V749H138.743ZM139.425 738.818C139.163 738.818 138.938 738.729 138.749 738.551C138.563 738.373 138.47 738.159 138.47 737.909C138.47 737.659 138.563 737.445 138.749 737.267C138.938 737.089 139.163 737 139.425 737C139.686 737 139.91 737.089 140.095 737.267C140.285 737.445 140.379 737.659 140.379 737.909C140.379 738.159 140.285 738.373 140.095 738.551C139.91 738.729 139.686 738.818 139.425 738.818ZM143.881 743.75V749H142.54V740.273H143.835V741.636H143.949C144.153 741.193 144.464 740.837 144.881 740.568C145.297 740.295 145.835 740.159 146.494 740.159C147.085 740.159 147.602 740.28 148.045 740.523C148.489 740.761 148.833 741.125 149.08 741.614C149.326 742.098 149.449 742.712 149.449 743.455V749H148.108V743.545C148.108 742.86 147.93 742.326 147.574 741.943C147.218 741.557 146.729 741.364 146.108 741.364C145.68 741.364 145.297 741.456 144.96 741.642C144.627 741.828 144.364 742.098 144.17 742.455C143.977 742.811 143.881 743.242 143.881 743.75ZM158.967 749.205C158.414 749.205 157.912 749.1 157.462 748.892C157.011 748.68 156.653 748.375 156.388 747.977C156.123 747.576 155.99 747.091 155.99 746.523C155.99 746.023 156.089 745.617 156.286 745.307C156.482 744.992 156.746 744.746 157.075 744.568C157.405 744.39 157.768 744.258 158.166 744.17C158.568 744.08 158.971 744.008 159.376 743.955C159.907 743.886 160.337 743.835 160.666 743.801C161 743.763 161.242 743.701 161.393 743.614C161.549 743.527 161.626 743.375 161.626 743.159V743.114C161.626 742.553 161.473 742.117 161.166 741.807C160.863 741.496 160.403 741.341 159.786 741.341C159.145 741.341 158.643 741.481 158.28 741.761C157.916 742.042 157.661 742.341 157.513 742.659L156.24 742.205C156.467 741.674 156.77 741.261 157.149 740.966C157.532 740.667 157.948 740.458 158.399 740.341C158.854 740.22 159.301 740.159 159.74 740.159C160.02 740.159 160.342 740.193 160.706 740.261C161.073 740.326 161.428 740.46 161.768 740.665C162.113 740.869 162.399 741.178 162.626 741.591C162.854 742.004 162.967 742.557 162.967 743.25V749H161.626V747.818H161.558C161.467 748.008 161.316 748.21 161.104 748.426C160.892 748.642 160.609 748.826 160.257 748.977C159.905 749.129 159.475 749.205 158.967 749.205ZM159.172 748C159.702 748 160.149 747.896 160.513 747.688C160.88 747.479 161.157 747.21 161.342 746.881C161.532 746.551 161.626 746.205 161.626 745.841V744.614C161.57 744.682 161.445 744.744 161.251 744.801C161.062 744.854 160.842 744.902 160.592 744.943C160.346 744.981 160.106 745.015 159.871 745.045C159.64 745.072 159.452 745.095 159.308 745.114C158.96 745.159 158.634 745.233 158.331 745.335C158.032 745.434 157.789 745.583 157.604 745.784C157.422 745.981 157.331 746.25 157.331 746.591C157.331 747.057 157.503 747.409 157.848 747.648C158.196 747.883 158.638 748 159.172 748ZM171.597 742.227L170.392 742.568C170.316 742.367 170.205 742.172 170.057 741.983C169.913 741.79 169.716 741.631 169.466 741.506C169.216 741.381 168.896 741.318 168.506 741.318C167.972 741.318 167.527 741.441 167.17 741.688C166.818 741.93 166.642 742.239 166.642 742.614C166.642 742.947 166.763 743.21 167.006 743.403C167.248 743.597 167.627 743.758 168.142 743.886L169.438 744.205C170.218 744.394 170.799 744.684 171.182 745.074C171.564 745.46 171.756 745.958 171.756 746.568C171.756 747.068 171.612 747.515 171.324 747.909C171.04 748.303 170.642 748.614 170.131 748.841C169.619 749.068 169.025 749.182 168.347 749.182C167.456 749.182 166.72 748.989 166.136 748.602C165.553 748.216 165.184 747.652 165.028 746.909L166.301 746.591C166.422 747.061 166.652 747.413 166.989 747.648C167.33 747.883 167.775 748 168.324 748C168.949 748 169.445 747.867 169.812 747.602C170.184 747.333 170.369 747.011 170.369 746.636C170.369 746.333 170.263 746.08 170.051 745.875C169.839 745.667 169.513 745.511 169.074 745.409L167.619 745.068C166.82 744.879 166.233 744.585 165.858 744.188C165.487 743.786 165.301 743.284 165.301 742.682C165.301 742.189 165.439 741.754 165.716 741.375C165.996 740.996 166.377 740.699 166.858 740.483C167.343 740.267 167.892 740.159 168.506 740.159C169.369 740.159 170.047 740.348 170.54 740.727C171.036 741.106 171.388 741.606 171.597 742.227ZM187.82 741H186.411C186.327 740.595 186.181 740.239 185.973 739.932C185.768 739.625 185.518 739.367 185.223 739.159C184.931 738.947 184.607 738.788 184.251 738.682C183.895 738.576 183.524 738.523 183.138 738.523C182.433 738.523 181.795 738.701 181.223 739.057C180.655 739.413 180.202 739.938 179.865 740.631C179.532 741.324 179.365 742.174 179.365 743.182C179.365 744.189 179.532 745.04 179.865 745.733C180.202 746.426 180.655 746.951 181.223 747.307C181.795 747.663 182.433 747.841 183.138 747.841C183.524 747.841 183.895 747.788 184.251 747.682C184.607 747.576 184.931 747.419 185.223 747.21C185.518 746.998 185.768 746.739 185.973 746.432C186.181 746.121 186.327 745.765 186.411 745.364H187.82C187.714 745.958 187.52 746.491 187.24 746.96C186.96 747.43 186.611 747.83 186.195 748.159C185.778 748.485 185.31 748.733 184.791 748.903C184.276 749.074 183.725 749.159 183.138 749.159C182.145 749.159 181.263 748.917 180.49 748.432C179.717 747.947 179.109 747.258 178.666 746.364C178.223 745.47 178.001 744.409 178.001 743.182C178.001 741.955 178.223 740.894 178.666 740C179.109 739.106 179.717 738.417 180.49 737.932C181.263 737.447 182.145 737.205 183.138 737.205C183.725 737.205 184.276 737.29 184.791 737.46C185.31 737.631 185.778 737.881 186.195 738.21C186.611 738.536 186.96 738.934 187.24 739.403C187.52 739.869 187.714 740.402 187.82 741ZM195.415 745.432V740.273H196.756V749H195.415V747.523H195.324C195.119 747.966 194.801 748.343 194.369 748.653C193.938 748.96 193.392 749.114 192.733 749.114C192.188 749.114 191.703 748.994 191.278 748.756C190.854 748.513 190.521 748.15 190.278 747.665C190.036 747.176 189.915 746.561 189.915 745.818V740.273H191.256V745.727C191.256 746.364 191.434 746.871 191.79 747.25C192.15 747.629 192.608 747.818 193.165 747.818C193.498 747.818 193.837 747.733 194.182 747.562C194.53 747.392 194.822 747.131 195.057 746.778C195.295 746.426 195.415 745.977 195.415 745.432ZM205.393 742.227L204.189 742.568C204.113 742.367 204.001 742.172 203.854 741.983C203.71 741.79 203.513 741.631 203.263 741.506C203.013 741.381 202.693 741.318 202.303 741.318C201.768 741.318 201.323 741.441 200.967 741.688C200.615 741.93 200.439 742.239 200.439 742.614C200.439 742.947 200.56 743.21 200.803 743.403C201.045 743.597 201.424 743.758 201.939 743.886L203.234 744.205C204.015 744.394 204.596 744.684 204.979 745.074C205.361 745.46 205.553 745.958 205.553 746.568C205.553 747.068 205.409 747.515 205.121 747.909C204.837 748.303 204.439 748.614 203.928 748.841C203.416 749.068 202.821 749.182 202.143 749.182C201.253 749.182 200.517 748.989 199.933 748.602C199.35 748.216 198.981 747.652 198.825 746.909L200.098 746.591C200.219 747.061 200.448 747.413 200.786 747.648C201.126 747.883 201.571 748 202.121 748C202.746 748 203.242 747.867 203.609 747.602C203.981 747.333 204.166 747.011 204.166 746.636C204.166 746.333 204.06 746.08 203.848 745.875C203.636 745.667 203.31 745.511 202.871 745.409L201.416 745.068C200.617 744.879 200.03 744.585 199.655 744.188C199.284 743.786 199.098 743.284 199.098 742.682C199.098 742.189 199.236 741.754 199.513 741.375C199.793 740.996 200.174 740.699 200.655 740.483C201.14 740.267 201.689 740.159 202.303 740.159C203.166 740.159 203.844 740.348 204.337 740.727C204.833 741.106 205.185 741.606 205.393 742.227ZM211.366 740.273V741.409H206.844V740.273H211.366ZM208.162 738.182H209.503V746.5C209.503 746.879 209.558 747.163 209.668 747.352C209.781 747.538 209.925 747.663 210.099 747.727C210.277 747.788 210.465 747.818 210.662 747.818C210.81 747.818 210.931 747.811 211.026 747.795C211.12 747.777 211.196 747.761 211.253 747.75L211.526 748.955C211.435 748.989 211.308 749.023 211.145 749.057C210.982 749.095 210.776 749.114 210.526 749.114C210.147 749.114 209.776 749.032 209.412 748.869C209.052 748.706 208.753 748.458 208.514 748.125C208.279 747.792 208.162 747.371 208.162 746.864V738.182ZM216.835 749.182C216.047 749.182 215.356 748.994 214.761 748.619C214.17 748.244 213.708 747.72 213.375 747.045C213.045 746.371 212.881 745.583 212.881 744.682C212.881 743.773 213.045 742.979 213.375 742.301C213.708 741.623 214.17 741.097 214.761 740.722C215.356 740.347 216.047 740.159 216.835 740.159C217.623 740.159 218.313 740.347 218.903 740.722C219.498 741.097 219.96 741.623 220.29 742.301C220.623 742.979 220.79 743.773 220.79 744.682C220.79 745.583 220.623 746.371 220.29 747.045C219.96 747.72 219.498 748.244 218.903 748.619C218.313 748.994 217.623 749.182 216.835 749.182ZM216.835 747.977C217.434 747.977 217.926 747.824 218.312 747.517C218.699 747.21 218.985 746.807 219.17 746.307C219.356 745.807 219.449 745.265 219.449 744.682C219.449 744.098 219.356 743.555 219.17 743.051C218.985 742.547 218.699 742.14 218.312 741.83C217.926 741.519 217.434 741.364 216.835 741.364C216.237 741.364 215.744 741.519 215.358 741.83C214.972 742.14 214.686 742.547 214.5 743.051C214.314 743.555 214.222 744.098 214.222 744.682C214.222 745.265 214.314 745.807 214.5 746.307C214.686 746.807 214.972 747.21 215.358 747.517C215.744 747.824 216.237 747.977 216.835 747.977ZM222.837 749V740.273H224.132V741.636H224.246C224.428 741.17 224.721 740.809 225.126 740.551C225.532 740.29 226.018 740.159 226.587 740.159C227.162 740.159 227.642 740.29 228.024 740.551C228.411 740.809 228.712 741.17 228.928 741.636H229.018C229.242 741.186 229.577 740.828 230.024 740.562C230.471 740.294 231.007 740.159 231.632 740.159C232.412 740.159 233.051 740.403 233.547 740.892C234.043 741.377 234.291 742.133 234.291 743.159V749H232.95V743.159C232.95 742.515 232.774 742.055 232.422 741.778C232.07 741.502 231.655 741.364 231.178 741.364C230.564 741.364 230.089 741.549 229.751 741.92C229.414 742.288 229.246 742.754 229.246 743.318V749H227.882V743.023C227.882 742.527 227.721 742.127 227.399 741.824C227.077 741.517 226.662 741.364 226.155 741.364C225.806 741.364 225.481 741.456 225.178 741.642C224.878 741.828 224.636 742.085 224.45 742.415C224.268 742.741 224.178 743.117 224.178 743.545V749H222.837ZM240.402 749.182C239.561 749.182 238.836 748.996 238.226 748.625C237.62 748.25 237.152 747.727 236.822 747.057C236.497 746.383 236.334 745.598 236.334 744.705C236.334 743.811 236.497 743.023 236.822 742.341C237.152 741.655 237.61 741.121 238.197 740.739C238.788 740.352 239.478 740.159 240.266 740.159C240.72 740.159 241.169 740.235 241.612 740.386C242.055 740.538 242.459 740.784 242.822 741.125C243.186 741.462 243.476 741.909 243.692 742.466C243.908 743.023 244.016 743.708 244.016 744.523V745.091H237.288V743.932H242.652C242.652 743.439 242.554 743 242.357 742.614C242.163 742.227 241.887 741.922 241.527 741.699C241.171 741.475 240.75 741.364 240.266 741.364C239.732 741.364 239.269 741.496 238.879 741.761C238.493 742.023 238.196 742.364 237.987 742.784C237.779 743.205 237.675 743.655 237.675 744.136V744.909C237.675 745.568 237.788 746.127 238.016 746.585C238.247 747.04 238.567 747.386 238.976 747.625C239.385 747.86 239.86 747.977 240.402 747.977C240.754 747.977 241.072 747.928 241.357 747.83C241.644 747.727 241.893 747.576 242.101 747.375C242.309 747.17 242.47 746.917 242.584 746.614L243.879 746.977C243.743 747.417 243.514 747.803 243.192 748.136C242.87 748.466 242.472 748.723 241.999 748.909C241.525 749.091 240.993 749.182 240.402 749.182ZM246.055 749V740.273H247.351V741.591H247.442C247.601 741.159 247.889 740.809 248.305 740.54C248.722 740.271 249.192 740.136 249.714 740.136C249.813 740.136 249.936 740.138 250.084 740.142C250.232 740.146 250.343 740.152 250.419 740.159V741.523C250.374 741.511 250.269 741.494 250.107 741.472C249.947 741.445 249.779 741.432 249.601 741.432C249.177 741.432 248.798 741.521 248.464 741.699C248.135 741.873 247.874 742.116 247.68 742.426C247.491 742.733 247.396 743.083 247.396 743.477V749H246.055Z" fill="black"/>
<circle cx="53" cy="491" r="8" fill="black"/>
<circle cx="74" cy="491" r="8" fill="black"/>
<circle cx="95" cy="491" r="8" fill="black"/>
<circle cx="116" cy="491" r="8" fill="black"/>
<circle cx="137" cy="491" r="8" fill="black"/>
<circle cx="158" cy="491" r="8" fill="black"/>
<rect x="0.5" y="0.5" width="359" height="799" stroke="black"/>
<defs>
<filter id="filter0_i_20_151" x="80" y="241" width="200" height="98" filterUnits="userSpaceOnUse" color-interpolation-filters="sRGB">
<feFlood flood-opacity="0" result="BackgroundImageFix"/>
<feBlend mode="normal" in="SourceGraphic" in2="BackgroundImageFix" result="shape"/>
<feColorMatrix in="SourceAlpha" type="matrix" values="0 0 0 0 0 0 0 0 0 0 0 0 0 0 0 0 0 0 127 0" result="hardAlpha"/>
<feOffset dy="4"/>
<feGaussianBlur stdDeviation="2"/>
<feComposite in2="hardAlpha" operator="arithmetic" k2="-1" k3="1"/>
<feColorMatrix type="matrix" values="0 0 0 0 0 0 0 0 0 0 0 0 0 0 0 0 0 0 0.25 0"/>
<feBlend mode="normal" in2="shape" result="effect1_innerShadow_20_151"/>
</filter>
</defs>
</svg>
