<svg width="300" height="141" viewBox="0 0 300 141" fill="none" xmlns="http://www.w3.org/2000/svg">
<ellipse cx="150" cy="70.5" rx="150" ry="70.5" fill="#D9D9D9"/>
<g filter="url(#filter0_i_7_111)">
<ellipse cx="150" cy="71" rx="100" ry="47" fill="white"/>
</g>
<path d="M34.2788 68V38.9091H50.4719V40.5568H36.0543V52.6165H49.6055V54.2642H36.0543V66.3523H50.8129V68H34.2788ZM71.0863 50.8835L69.4812 51.3097C69.2255 50.5142 68.8609 49.8277 68.3874 49.25C67.9139 48.6723 67.3174 48.2273 66.5977 47.9148C65.8874 47.5928 65.0352 47.4318 64.0408 47.4318C62.4405 47.4318 61.1289 47.8295 60.1062 48.625C59.0929 49.4205 58.5863 50.4574 58.5863 51.7358C58.5863 52.7775 58.9319 53.6392 59.6232 54.321C60.3145 54.9934 61.3704 55.5047 62.7908 55.8551L66.1431 56.6932C67.8666 57.1193 69.1639 57.8106 70.0352 58.767C70.9064 59.714 71.342 60.893 71.342 62.304C71.342 63.5066 71.0153 64.572 70.3619 65.5C69.7085 66.428 68.8041 67.1525 67.6488 67.6733C66.503 68.1941 65.1677 68.4545 63.6431 68.4545C61.6071 68.4545 59.9357 67.9811 58.6289 67.0341C57.3221 66.0777 56.484 64.7093 56.1147 62.929L57.7766 62.5028C58.0891 63.9233 58.7378 65.0076 59.7227 65.7557C60.717 66.4943 62.0191 66.8636 63.6289 66.8636C65.4092 66.8636 66.8439 66.4422 67.9329 65.5994C69.0314 64.7566 69.5806 63.6771 69.5806 62.3608C69.5806 61.357 69.2586 60.5095 68.6147 59.8182C67.9708 59.1269 66.9954 58.6203 65.6886 58.2983L62.2085 57.446C60.4281 57.0104 59.0929 56.3144 58.2028 55.358C57.3126 54.392 56.8675 53.2036 56.8675 51.7926C56.8675 50.6184 57.1753 49.5862 57.7908 48.696C58.4064 47.8059 59.2539 47.1098 60.3335 46.608C61.413 46.1061 62.6488 45.8551 64.0408 45.8551C65.8874 45.8551 67.3931 46.2907 68.5579 47.1619C69.7227 48.0331 70.5655 49.2737 71.0863 50.8835ZM85.8484 68.4545C83.8787 68.4545 82.1647 67.9669 80.7063 66.9915C79.248 66.0161 78.1211 64.6809 77.3256 62.9858C76.5302 61.2907 76.1325 59.3589 76.1325 57.1903C76.1325 55.0123 76.5302 53.071 77.3256 51.3665C78.1306 49.6619 79.2338 48.3172 80.6353 47.3324C82.0368 46.3475 83.6372 45.8551 85.4364 45.8551C86.658 45.8551 87.8133 46.1013 88.9023 46.5938C90.0008 47.0767 90.9667 47.7775 91.8001 48.696C92.6429 49.6146 93.301 50.7225 93.7745 52.0199C94.2575 53.3172 94.4989 54.7756 94.4989 56.3949V57.4744H77.2262V55.8977H92.766C92.766 54.3163 92.444 52.8911 91.8001 51.6222C91.1561 50.3532 90.2802 49.3447 89.1722 48.5966C88.0643 47.8485 86.819 47.4744 85.4364 47.4744C83.9876 47.4744 82.695 47.8816 81.5586 48.696C80.4317 49.5009 79.5368 50.59 78.8739 51.9631C78.2205 53.3362 77.8796 54.8703 77.8512 56.5653V57.2756C77.8512 59.0937 78.1684 60.7273 78.8029 62.1761C79.4469 63.6155 80.3654 64.7566 81.5586 65.5994C82.7518 66.4328 84.1817 66.8494 85.8484 66.8494C87.0415 66.8494 88.0595 66.6506 88.9023 66.2528C89.7546 65.8456 90.4506 65.3532 90.9904 64.7756C91.5302 64.1979 91.9374 63.6392 92.212 63.0994L93.7887 63.7386C93.4573 64.4678 92.9412 65.197 92.2404 65.9261C91.5491 66.6458 90.6684 67.2472 89.5984 67.7301C88.5378 68.2131 87.2878 68.4545 85.8484 68.4545ZM100.465 68V46.1818H102.155V49.4773H102.326C102.742 48.3788 103.462 47.5076 104.485 46.8636C105.507 46.2197 106.739 45.8977 108.178 45.8977C109.759 45.8977 111.033 46.2765 111.999 47.0341C112.974 47.7917 113.675 48.8191 114.101 50.1165H114.257C114.684 48.8381 115.446 47.8153 116.544 47.0483C117.652 46.2812 119.016 45.8977 120.635 45.8977C122.747 45.8977 124.357 46.5653 125.465 47.9006C126.582 49.2263 127.141 51.0445 127.141 53.3551V68H125.408V53.3551C125.408 51.5369 124.972 50.107 124.101 49.0653C123.23 48.0237 121.952 47.5028 120.266 47.5028C118.467 47.5028 117.084 48.0663 116.118 49.1932C115.152 50.3201 114.669 51.7547 114.669 53.4972V68H112.936V53.2415C112.936 51.5464 112.51 50.1686 111.658 49.108C110.806 48.0379 109.527 47.5028 107.823 47.5028C106.667 47.5028 105.668 47.768 104.826 48.2983C103.992 48.8286 103.344 49.5578 102.88 50.4858C102.425 51.4138 102.198 52.4792 102.198 53.6818V68H100.465ZM135.838 59.4773L135.809 56.9915H136.264L147.173 46.1818H149.431L139.417 56.125L139.247 56.196L135.838 59.4773ZM134.332 68V38.9091H136.065V68H134.332ZM147.67 68L138.466 56.3665L139.716 55.2159L149.886 68H147.67ZM160.348 68.4688C159.088 68.4688 157.933 68.2178 156.882 67.7159C155.84 67.214 155.002 66.4801 154.368 65.5142C153.743 64.5483 153.43 63.3741 153.43 61.9915C153.43 61.0824 153.591 60.2822 153.913 59.5909C154.235 58.8996 154.732 58.303 155.404 57.8011C156.077 57.2992 156.939 56.8873 157.99 56.5653C159.041 56.2339 160.296 55.9782 161.754 55.7983C162.862 55.6657 163.851 55.5379 164.723 55.4148C165.594 55.2822 166.276 55.0786 166.768 54.804C167.27 54.5294 167.521 54.1127 167.521 53.554V52.6449C167.521 51.054 167.019 49.7898 166.015 48.8523C165.011 47.9148 163.629 47.446 161.868 47.446C160.305 47.446 158.989 47.7917 157.919 48.483C156.858 49.1648 156.115 50.0455 155.689 51.125L154.055 50.5142C154.472 49.4725 155.073 48.6061 155.859 47.9148C156.654 47.2235 157.564 46.7074 158.586 46.3665C159.618 46.0256 160.698 45.8551 161.825 45.8551C162.8 45.8551 163.728 45.9924 164.609 46.267C165.499 46.5417 166.29 46.9583 166.981 47.517C167.682 48.0758 168.236 48.7907 168.643 49.6619C169.05 50.5237 169.254 51.5559 169.254 52.7585V68H167.521V64.0653H167.393C167.014 64.8797 166.493 65.6231 165.831 66.2955C165.177 66.9583 164.386 67.4886 163.458 67.8864C162.54 68.2746 161.503 68.4688 160.348 68.4688ZM160.518 66.8636C161.882 66.8636 163.089 66.5322 164.14 65.8693C165.201 65.197 166.029 64.2784 166.626 63.1136C167.223 61.9489 167.521 60.6278 167.521 59.1506V55.9403C167.303 56.1297 166.986 56.3002 166.569 56.4517C166.162 56.5937 165.698 56.7216 165.177 56.8352C164.666 56.9394 164.126 57.0341 163.558 57.1193C162.999 57.1951 162.455 57.2661 161.924 57.3324C160.333 57.5218 159.036 57.8153 158.032 58.2131C157.038 58.6013 156.309 59.1127 155.845 59.7472C155.39 60.3816 155.163 61.1487 155.163 62.0483C155.163 63.535 155.674 64.7093 156.697 65.571C157.72 66.4328 158.993 66.8636 160.518 66.8636Z" fill="#E26868"/>
<path d="M82.3999 104V74.9091H91.3629C93.2 74.9091 94.7815 75.2689 96.1072 75.9886C97.433 76.7083 98.451 77.7074 99.1612 78.9858C99.8714 80.2547 100.227 81.732 100.227 83.4176C100.227 85.0843 99.8714 86.5521 99.1612 87.821C98.451 89.0805 97.433 90.0653 96.1072 90.7756C94.791 91.4858 93.2143 91.8409 91.3771 91.8409H83.3516V90.179H91.3345C92.8307 90.179 94.1091 89.8996 95.1697 89.3409C96.2304 88.7822 97.0447 88.0009 97.6129 86.9972C98.1811 85.9839 98.4652 84.7907 98.4652 83.4176C98.4652 82.035 98.1811 80.8324 97.6129 79.8097C97.0447 78.7775 96.2256 77.9773 95.1555 77.4091C94.0949 76.8409 92.8165 76.5568 91.3203 76.5568H84.1754V104H82.3999ZM94.3459 90.8182L101.505 104H99.4595L92.343 90.8182H94.3459ZM114.985 104.455C113.015 104.455 111.301 103.967 109.843 102.991C108.385 102.016 107.258 100.681 106.462 98.9858C105.667 97.2907 105.269 95.3589 105.269 93.1903C105.269 91.0123 105.667 89.071 106.462 87.3665C107.267 85.6619 108.371 84.3172 109.772 83.3324C111.174 82.3475 112.774 81.8551 114.573 81.8551C115.795 81.8551 116.95 82.1013 118.039 82.5938C119.138 83.0767 120.103 83.7775 120.937 84.696C121.78 85.6146 122.438 86.7225 122.911 88.0199C123.394 89.3172 123.636 90.7756 123.636 92.3949V93.4744H106.363V91.8977H121.903C121.903 90.3163 121.581 88.8911 120.937 87.6222C120.293 86.3532 119.417 85.3447 118.309 84.5966C117.201 83.8485 115.956 83.4744 114.573 83.4744C113.124 83.4744 111.832 83.8816 110.695 84.696C109.568 85.5009 108.674 86.59 108.011 87.9631C107.357 89.3362 107.016 90.8703 106.988 92.5653V93.2756C106.988 95.0937 107.305 96.7273 107.94 98.1761C108.584 99.6155 109.502 100.757 110.695 101.599C111.888 102.433 113.318 102.849 114.985 102.849C116.178 102.849 117.196 102.651 118.039 102.253C118.891 101.846 119.587 101.353 120.127 100.776C120.667 100.198 121.074 99.6392 121.349 99.0994L122.925 99.7386C122.594 100.468 122.078 101.197 121.377 101.926C120.686 102.646 119.805 103.247 118.735 103.73C117.674 104.213 116.424 104.455 114.985 104.455ZM143.465 86.8835L141.86 87.3097C141.604 86.5142 141.24 85.8277 140.766 85.25C140.293 84.6723 139.696 84.2273 138.977 83.9148C138.266 83.5928 137.414 83.4318 136.42 83.4318C134.819 83.4318 133.508 83.8295 132.485 84.625C131.472 85.4205 130.965 86.4574 130.965 87.7358C130.965 88.7775 131.311 89.6392 132.002 90.321C132.693 90.9934 133.749 91.5047 135.17 91.8551L138.522 92.6932C140.246 93.1193 141.543 93.8106 142.414 94.767C143.285 95.714 143.721 96.893 143.721 98.304C143.721 99.5066 143.394 100.572 142.741 101.5C142.087 102.428 141.183 103.152 140.028 103.673C138.882 104.194 137.547 104.455 136.022 104.455C133.986 104.455 132.315 103.981 131.008 103.034C129.701 102.078 128.863 100.709 128.494 98.929L130.156 98.5028C130.468 99.9233 131.117 101.008 132.102 101.756C133.096 102.494 134.398 102.864 136.008 102.864C137.788 102.864 139.223 102.442 140.312 101.599C141.41 100.757 141.96 99.6771 141.96 98.3608C141.96 97.357 141.638 96.5095 140.994 95.8182C140.35 95.1269 139.374 94.6203 138.067 94.2983L134.587 93.446C132.807 93.0104 131.472 92.3144 130.582 91.358C129.692 90.392 129.246 89.2036 129.246 87.7926C129.246 86.6184 129.554 85.5862 130.17 84.696C130.785 83.8059 131.633 83.1098 132.712 82.608C133.792 82.1061 135.028 81.8551 136.42 81.8551C138.266 81.8551 139.772 82.2907 140.937 83.1619C142.102 84.0331 142.944 85.2737 143.465 86.8835ZM157.432 82.1818V83.7301H147.901V82.1818H157.432ZM151.125 76.9545H152.844V98.8438C152.844 99.7339 153.014 100.463 153.355 101.031C153.705 101.59 154.16 102.007 154.719 102.281C155.287 102.546 155.893 102.679 156.537 102.679C156.849 102.679 157.119 102.655 157.347 102.608C157.583 102.561 157.806 102.499 158.014 102.423L158.44 104C158.175 104.095 157.882 104.175 157.56 104.241C157.238 104.317 156.859 104.355 156.423 104.355C155.514 104.355 154.652 104.152 153.838 103.744C153.033 103.337 152.38 102.745 151.878 101.969C151.376 101.192 151.125 100.255 151.125 99.1562V76.9545ZM169.641 104.469C168.381 104.469 167.226 104.218 166.175 103.716C165.133 103.214 164.295 102.48 163.661 101.514C163.036 100.548 162.723 99.3741 162.723 97.9915C162.723 97.0824 162.884 96.2822 163.206 95.5909C163.528 94.8996 164.025 94.303 164.697 93.8011C165.37 93.2992 166.232 92.8873 167.283 92.5653C168.334 92.2339 169.589 91.9782 171.047 91.7983C172.155 91.6657 173.144 91.5379 174.016 91.4148C174.887 91.2822 175.569 91.0786 176.061 90.804C176.563 90.5294 176.814 90.1127 176.814 89.554V88.6449C176.814 87.054 176.312 85.7898 175.308 84.8523C174.304 83.9148 172.922 83.446 171.161 83.446C169.598 83.446 168.282 83.7917 167.212 84.483C166.151 85.1648 165.408 86.0455 164.982 87.125L163.348 86.5142C163.765 85.4725 164.366 84.6061 165.152 83.9148C165.947 83.2235 166.857 82.7074 167.879 82.3665C168.911 82.0256 169.991 81.8551 171.118 81.8551C172.093 81.8551 173.021 81.9924 173.902 82.267C174.792 82.5417 175.583 82.9583 176.274 83.517C176.975 84.0758 177.529 84.7907 177.936 85.6619C178.343 86.5237 178.547 87.5559 178.547 88.7585V104H176.814V100.065H176.686C176.307 100.88 175.786 101.623 175.124 102.295C174.47 102.958 173.679 103.489 172.751 103.886C171.833 104.275 170.796 104.469 169.641 104.469ZM169.811 102.864C171.175 102.864 172.382 102.532 173.433 101.869C174.494 101.197 175.322 100.278 175.919 99.1136C176.516 97.9489 176.814 96.6278 176.814 95.1506V91.9403C176.596 92.1297 176.279 92.3002 175.862 92.4517C175.455 92.5937 174.991 92.7216 174.47 92.8352C173.959 92.9394 173.419 93.0341 172.851 93.1193C172.292 93.1951 171.748 93.2661 171.217 93.3324C169.626 93.5218 168.329 93.8153 167.325 94.2131C166.331 94.6013 165.602 95.1127 165.138 95.7472C164.683 96.3816 164.456 97.1487 164.456 98.0483C164.456 99.535 164.967 100.709 165.99 101.571C167.013 102.433 168.286 102.864 169.811 102.864ZM199.79 96.2585V82.1818H201.523V104H199.79V100.463H199.648C199.136 101.59 198.308 102.509 197.162 103.219C196.026 103.929 194.681 104.284 193.128 104.284C191.698 104.284 190.434 103.972 189.335 103.347C188.237 102.722 187.375 101.836 186.75 100.69C186.125 99.535 185.812 98.1619 185.812 96.571V82.1818H187.545V96.5C187.545 98.3182 188.095 99.7907 189.193 100.918C190.301 102.035 191.731 102.594 193.483 102.594C194.619 102.594 195.666 102.338 196.622 101.827C197.579 101.315 198.346 100.586 198.923 99.6392C199.501 98.6828 199.79 97.5559 199.79 96.2585ZM208.703 104V82.1818H210.393V85.5909H210.55C211.023 84.4735 211.823 83.5786 212.95 82.9062C214.077 82.2244 215.36 81.8835 216.8 81.8835C216.951 81.8835 217.103 81.8835 217.254 81.8835C217.406 81.8835 217.548 81.8883 217.68 81.8977V83.6449C217.567 83.6354 217.429 83.6212 217.268 83.6023C217.117 83.5739 216.928 83.5597 216.7 83.5597C215.488 83.5597 214.409 83.8201 213.462 84.3409C212.524 84.8617 211.786 85.5814 211.246 86.5C210.706 87.4091 210.436 88.4508 210.436 89.625V104H208.703ZM228.117 104.469C226.858 104.469 225.702 104.218 224.651 103.716C223.61 103.214 222.772 102.48 222.137 101.514C221.512 100.548 221.2 99.3741 221.2 97.9915C221.2 97.0824 221.361 96.2822 221.683 95.5909C222.004 94.8996 222.502 94.303 223.174 93.8011C223.846 93.2992 224.708 92.8873 225.759 92.5653C226.81 92.2339 228.065 91.9782 229.523 91.7983C230.631 91.6657 231.621 91.5379 232.492 91.4148C233.363 91.2822 234.045 91.0786 234.538 90.804C235.04 90.5294 235.29 90.1127 235.29 89.554V88.6449C235.29 87.054 234.789 85.7898 233.785 84.8523C232.781 83.9148 231.398 83.446 229.637 83.446C228.075 83.446 226.758 83.7917 225.688 84.483C224.628 85.1648 223.884 86.0455 223.458 87.125L221.825 86.5142C222.241 85.4725 222.843 84.6061 223.629 83.9148C224.424 83.2235 225.333 82.7074 226.356 82.3665C227.388 82.0256 228.468 81.8551 229.594 81.8551C230.57 81.8551 231.498 81.9924 232.379 82.267C233.269 82.5417 234.059 82.9583 234.751 83.517C235.451 84.0758 236.005 84.7907 236.413 85.6619C236.82 86.5237 237.023 87.5559 237.023 88.7585V104H235.29V100.065H235.163C234.784 100.88 234.263 101.623 233.6 102.295C232.947 102.958 232.156 103.489 231.228 103.886C230.309 104.275 229.272 104.469 228.117 104.469ZM228.288 102.864C229.651 102.864 230.859 102.532 231.91 101.869C232.97 101.197 233.799 100.278 234.396 99.1136C234.992 97.9489 235.29 96.6278 235.29 95.1506V91.9403C235.073 92.1297 234.755 92.3002 234.339 92.4517C233.932 92.5937 233.468 92.7216 232.947 92.8352C232.435 92.9394 231.896 93.0341 231.327 93.1193C230.769 93.1951 230.224 93.2661 229.694 93.3324C228.103 93.5218 226.806 93.8153 225.802 94.2131C224.808 94.6013 224.078 95.1127 223.614 95.7472C223.16 96.3816 222.933 97.1487 222.933 98.0483C222.933 99.535 223.444 100.709 224.467 101.571C225.489 102.433 226.763 102.864 228.288 102.864ZM246.022 89.8523V104H244.289V82.1818H245.979V85.6335H246.15C246.661 84.5066 247.48 83.6023 248.607 82.9205C249.734 82.2386 251.074 81.8977 252.627 81.8977C254.095 81.8977 255.383 82.2102 256.491 82.8352C257.608 83.4602 258.479 84.3504 259.104 85.5057C259.739 86.6515 260.056 88.0199 260.056 89.6108V104H258.323V89.6818C258.323 87.8258 257.769 86.3343 256.661 85.2074C255.563 84.071 254.109 83.5028 252.3 83.5028C251.088 83.5028 250.009 83.768 249.062 84.2983C248.115 84.8286 247.371 85.572 246.832 86.5284C246.292 87.4754 246.022 88.5833 246.022 89.8523ZM274.971 82.1818V83.7301H265.44V82.1818H274.971ZM268.664 76.9545H270.383V98.8438C270.383 99.7339 270.553 100.463 270.894 101.031C271.245 101.59 271.699 102.007 272.258 102.281C272.826 102.546 273.432 102.679 274.076 102.679C274.388 102.679 274.658 102.655 274.886 102.608C275.122 102.561 275.345 102.499 275.553 102.423L275.979 104C275.714 104.095 275.421 104.175 275.099 104.241C274.777 104.317 274.398 104.355 273.962 104.355C273.053 104.355 272.192 104.152 271.377 103.744C270.572 103.337 269.919 102.745 269.417 101.969C268.915 101.192 268.664 100.255 268.664 99.1562V76.9545Z" fill="#E26868"/>
<defs>
<filter id="filter0_i_7_111" x="50" y="24" width="200" height="98" filterUnits="userSpaceOnUse" color-interpolation-filters="sRGB">
<feFlood flood-opacity="0" result="BackgroundImageFix"/>
<feBlend mode="normal" in="SourceGraphic" in2="BackgroundImageFix" result="shape"/>
<feColorMatrix in="SourceAlpha" type="matrix" values="0 0 0 0 0 0 0 0 0 0 0 0 0 0 0 0 0 0 127 0" result="hardAlpha"/>
<feOffset dy="4"/>
<feGaussianBlur stdDeviation="2"/>
<feComposite in2="hardAlpha" operator="arithmetic" k2="-1" k3="1"/>
<feColorMatrix type="matrix" values="0 0 0 0 0 0 0 0 0 0 0 0 0 0 0 0 0 0 0.25 0"/>
<feBlend mode="normal" in2="shape" result="effect1_innerShadow_7_111"/>
</filter>
</defs>
</svg>
