<svg width="360" height="800" viewBox="0 0 360 800" fill="none" xmlns="http://www.w3.org/2000/svg">
<rect x="0.5" y="0.5" width="359" height="799" fill="white"/>
<rect x="31" y="719" width="298" height="48" rx="4" fill="#FF8787" stroke="#E26868" stroke-width="2"/>
<path d="M129.214 749V737.364H130.623V747.75H136.032V749H129.214ZM141.577 749.182C140.79 749.182 140.098 748.994 139.504 748.619C138.913 748.244 138.451 747.72 138.117 747.045C137.788 746.371 137.623 745.583 137.623 744.682C137.623 743.773 137.788 742.979 138.117 742.301C138.451 741.623 138.913 741.097 139.504 740.722C140.098 740.347 140.79 740.159 141.577 740.159C142.365 740.159 143.055 740.347 143.646 740.722C144.24 741.097 144.702 741.623 145.032 742.301C145.365 742.979 145.532 743.773 145.532 744.682C145.532 745.583 145.365 746.371 145.032 747.045C144.702 747.72 144.24 748.244 143.646 748.619C143.055 748.994 142.365 749.182 141.577 749.182ZM141.577 747.977C142.176 747.977 142.668 747.824 143.055 747.517C143.441 747.21 143.727 746.807 143.913 746.307C144.098 745.807 144.191 745.265 144.191 744.682C144.191 744.098 144.098 743.555 143.913 743.051C143.727 742.547 143.441 742.14 143.055 741.83C142.668 741.519 142.176 741.364 141.577 741.364C140.979 741.364 140.487 741.519 140.1 741.83C139.714 742.14 139.428 742.547 139.242 743.051C139.057 743.555 138.964 744.098 138.964 744.682C138.964 745.265 139.057 745.807 139.242 746.307C139.428 746.807 139.714 747.21 140.1 747.517C140.487 747.824 140.979 747.977 141.577 747.977ZM151.102 752.455C150.454 752.455 149.897 752.371 149.431 752.205C148.965 752.042 148.577 751.826 148.266 751.557C147.96 751.292 147.715 751.008 147.533 750.705L148.602 749.955C148.723 750.114 148.876 750.295 149.062 750.5C149.247 750.708 149.501 750.888 149.823 751.04C150.149 751.195 150.575 751.273 151.102 751.273C151.806 751.273 152.388 751.102 152.846 750.761C153.304 750.42 153.533 749.886 153.533 749.159V747.386H153.42C153.321 747.545 153.181 747.742 152.999 747.977C152.821 748.208 152.564 748.415 152.227 748.597C151.893 748.775 151.442 748.864 150.874 748.864C150.17 748.864 149.537 748.697 148.977 748.364C148.42 748.03 147.978 747.545 147.653 746.909C147.331 746.273 147.17 745.5 147.17 744.591C147.17 743.697 147.327 742.919 147.641 742.256C147.956 741.589 148.393 741.074 148.954 740.71C149.514 740.343 150.162 740.159 150.897 740.159C151.465 740.159 151.916 740.254 152.249 740.443C152.586 740.629 152.844 740.841 153.022 741.08C153.204 741.314 153.344 741.508 153.442 741.659H153.579V740.273H154.874V749.25C154.874 750 154.704 750.61 154.363 751.08C154.026 751.553 153.571 751.9 152.999 752.119C152.431 752.343 151.799 752.455 151.102 752.455ZM151.056 747.659C151.594 747.659 152.049 747.536 152.42 747.29C152.791 747.044 153.073 746.689 153.266 746.227C153.46 745.765 153.556 745.212 153.556 744.568C153.556 743.939 153.461 743.384 153.272 742.903C153.083 742.422 152.802 742.045 152.431 741.773C152.06 741.5 151.602 741.364 151.056 741.364C150.488 741.364 150.014 741.508 149.636 741.795C149.261 742.083 148.978 742.47 148.789 742.955C148.603 743.439 148.511 743.977 148.511 744.568C148.511 745.174 148.605 745.71 148.795 746.176C148.988 746.638 149.272 747.002 149.647 747.267C150.026 747.528 150.496 747.659 151.056 747.659ZM157.329 749V740.273H158.67V749H157.329ZM158.011 738.818C157.749 738.818 157.524 738.729 157.335 738.551C157.149 738.373 157.056 738.159 157.056 737.909C157.056 737.659 157.149 737.445 157.335 737.267C157.524 737.089 157.749 737 158.011 737C158.272 737 158.496 737.089 158.681 737.267C158.871 737.445 158.965 737.659 158.965 737.909C158.965 738.159 158.871 738.373 158.681 738.551C158.496 738.729 158.272 738.818 158.011 738.818ZM162.467 743.75V749H161.126V740.273H162.421V741.636H162.535C162.739 741.193 163.05 740.837 163.467 740.568C163.883 740.295 164.421 740.159 165.08 740.159C165.671 740.159 166.188 740.28 166.631 740.523C167.075 740.761 167.419 741.125 167.665 741.614C167.912 742.098 168.035 742.712 168.035 743.455V749H166.694V743.545C166.694 742.86 166.516 742.326 166.16 741.943C165.804 741.557 165.315 741.364 164.694 741.364C164.266 741.364 163.883 741.456 163.546 741.642C163.213 741.828 162.95 742.098 162.756 742.455C162.563 742.811 162.467 743.242 162.467 743.75ZM177.553 749.205C177 749.205 176.498 749.1 176.048 748.892C175.597 748.68 175.239 748.375 174.974 747.977C174.709 747.576 174.576 747.091 174.576 746.523C174.576 746.023 174.674 745.617 174.871 745.307C175.068 744.992 175.332 744.746 175.661 744.568C175.991 744.39 176.354 744.258 176.752 744.17C177.154 744.08 177.557 744.008 177.962 743.955C178.493 743.886 178.923 743.835 179.252 743.801C179.585 743.763 179.828 743.701 179.979 743.614C180.135 743.527 180.212 743.375 180.212 743.159V743.114C180.212 742.553 180.059 742.117 179.752 741.807C179.449 741.496 178.989 741.341 178.371 741.341C177.731 741.341 177.229 741.481 176.866 741.761C176.502 742.042 176.246 742.341 176.099 742.659L174.826 742.205C175.053 741.674 175.356 741.261 175.735 740.966C176.118 740.667 176.534 740.458 176.985 740.341C177.44 740.22 177.887 740.159 178.326 740.159C178.606 740.159 178.928 740.193 179.292 740.261C179.659 740.326 180.013 740.46 180.354 740.665C180.699 740.869 180.985 741.178 181.212 741.591C181.44 742.004 181.553 742.557 181.553 743.25V749H180.212V747.818H180.144C180.053 748.008 179.902 748.21 179.69 748.426C179.478 748.642 179.195 748.826 178.843 748.977C178.491 749.129 178.061 749.205 177.553 749.205ZM177.758 748C178.288 748 178.735 747.896 179.099 747.688C179.466 747.479 179.743 747.21 179.928 746.881C180.118 746.551 180.212 746.205 180.212 745.841V744.614C180.156 744.682 180.031 744.744 179.837 744.801C179.648 744.854 179.428 744.902 179.178 744.943C178.932 744.981 178.692 745.015 178.457 745.045C178.226 745.072 178.038 745.095 177.894 745.114C177.546 745.159 177.22 745.233 176.917 745.335C176.618 745.434 176.375 745.583 176.19 745.784C176.008 745.981 175.917 746.25 175.917 746.591C175.917 747.057 176.089 747.409 176.434 747.648C176.782 747.883 177.224 748 177.758 748ZM190.183 742.227L188.978 742.568C188.902 742.367 188.79 742.172 188.643 741.983C188.499 741.79 188.302 741.631 188.052 741.506C187.802 741.381 187.482 741.318 187.092 741.318C186.558 741.318 186.112 741.441 185.756 741.688C185.404 741.93 185.228 742.239 185.228 742.614C185.228 742.947 185.349 743.21 185.592 743.403C185.834 743.597 186.213 743.758 186.728 743.886L188.023 744.205C188.804 744.394 189.385 744.684 189.768 745.074C190.15 745.46 190.342 745.958 190.342 746.568C190.342 747.068 190.198 747.515 189.91 747.909C189.626 748.303 189.228 748.614 188.717 748.841C188.205 749.068 187.611 749.182 186.933 749.182C186.042 749.182 185.306 748.989 184.722 748.602C184.139 748.216 183.77 747.652 183.614 746.909L184.887 746.591C185.008 747.061 185.237 747.413 185.575 747.648C185.915 747.883 186.361 748 186.91 748C187.535 748 188.031 747.867 188.398 747.602C188.77 747.333 188.955 747.011 188.955 746.636C188.955 746.333 188.849 746.08 188.637 745.875C188.425 745.667 188.099 745.511 187.66 745.409L186.205 745.068C185.406 744.879 184.819 744.585 184.444 744.188C184.073 743.786 183.887 743.284 183.887 742.682C183.887 742.189 184.025 741.754 184.302 741.375C184.582 740.996 184.963 740.699 185.444 740.483C185.929 740.267 186.478 740.159 187.092 740.159C187.955 740.159 188.633 740.348 189.126 740.727C189.622 741.106 189.974 741.606 190.183 742.227ZM203.406 740.273C203.337 739.697 203.061 739.25 202.576 738.932C202.091 738.614 201.496 738.455 200.792 738.455C200.277 738.455 199.826 738.538 199.44 738.705C199.057 738.871 198.758 739.1 198.542 739.392C198.33 739.684 198.224 740.015 198.224 740.386C198.224 740.697 198.298 740.964 198.445 741.188C198.597 741.407 198.79 741.591 199.025 741.739C199.26 741.883 199.506 742.002 199.763 742.097C200.021 742.187 200.258 742.261 200.474 742.318L201.656 742.636C201.959 742.716 202.296 742.826 202.667 742.966C203.042 743.106 203.4 743.297 203.741 743.54C204.085 743.778 204.37 744.085 204.593 744.46C204.817 744.835 204.928 745.295 204.928 745.841C204.928 746.47 204.763 747.038 204.434 747.545C204.108 748.053 203.631 748.456 203.002 748.756C202.377 749.055 201.618 749.205 200.724 749.205C199.89 749.205 199.169 749.07 198.559 748.801C197.953 748.532 197.476 748.157 197.127 747.676C196.782 747.195 196.587 746.636 196.542 746H197.996C198.034 746.439 198.182 746.803 198.44 747.091C198.701 747.375 199.031 747.587 199.428 747.727C199.83 747.864 200.262 747.932 200.724 747.932C201.262 747.932 201.745 747.845 202.173 747.67C202.601 747.492 202.94 747.246 203.19 746.932C203.44 746.614 203.565 746.242 203.565 745.818C203.565 745.432 203.457 745.117 203.241 744.875C203.025 744.633 202.741 744.436 202.388 744.284C202.036 744.133 201.656 744 201.246 743.886L199.815 743.477C198.906 743.216 198.186 742.843 197.656 742.358C197.125 741.873 196.86 741.239 196.86 740.455C196.86 739.803 197.036 739.235 197.388 738.75C197.745 738.261 198.222 737.883 198.82 737.614C199.423 737.341 200.095 737.205 200.837 737.205C201.587 737.205 202.254 737.339 202.837 737.608C203.421 737.873 203.883 738.237 204.224 738.699C204.568 739.161 204.75 739.686 204.769 740.273H203.406ZM210.859 740.273V741.409H206.336V740.273H210.859ZM207.654 738.182H208.995V746.5C208.995 746.879 209.05 747.163 209.16 747.352C209.273 747.538 209.417 747.663 209.592 747.727C209.77 747.788 209.957 747.818 210.154 747.818C210.302 747.818 210.423 747.811 210.518 747.795C210.612 747.777 210.688 747.761 210.745 747.75L211.018 748.955C210.927 748.989 210.8 749.023 210.637 749.057C210.474 749.095 210.268 749.114 210.018 749.114C209.639 749.114 209.268 749.032 208.904 748.869C208.544 748.706 208.245 748.458 208.006 748.125C207.772 747.792 207.654 747.371 207.654 746.864V738.182ZM215.444 749.205C214.891 749.205 214.389 749.1 213.938 748.892C213.487 748.68 213.129 748.375 212.864 747.977C212.599 747.576 212.467 747.091 212.467 746.523C212.467 746.023 212.565 745.617 212.762 745.307C212.959 744.992 213.222 744.746 213.552 744.568C213.881 744.39 214.245 744.258 214.643 744.17C215.044 744.08 215.448 744.008 215.853 743.955C216.383 743.886 216.813 743.835 217.143 743.801C217.476 743.763 217.719 743.701 217.87 743.614C218.025 743.527 218.103 743.375 218.103 743.159V743.114C218.103 742.553 217.95 742.117 217.643 741.807C217.34 741.496 216.879 741.341 216.262 741.341C215.622 741.341 215.12 741.481 214.756 741.761C214.393 742.042 214.137 742.341 213.989 742.659L212.717 742.205C212.944 741.674 213.247 741.261 213.626 740.966C214.008 740.667 214.425 740.458 214.876 740.341C215.33 740.22 215.777 740.159 216.217 740.159C216.497 740.159 216.819 740.193 217.183 740.261C217.55 740.326 217.904 740.46 218.245 740.665C218.59 740.869 218.876 741.178 219.103 741.591C219.33 742.004 219.444 742.557 219.444 743.25V749H218.103V747.818H218.035C217.944 748.008 217.792 748.21 217.58 748.426C217.368 748.642 217.086 748.826 216.734 748.977C216.381 749.129 215.951 749.205 215.444 749.205ZM215.648 748C216.179 748 216.626 747.896 216.989 747.688C217.357 747.479 217.633 747.21 217.819 746.881C218.008 746.551 218.103 746.205 218.103 745.841V744.614C218.046 744.682 217.921 744.744 217.728 744.801C217.539 744.854 217.319 744.902 217.069 744.943C216.823 744.981 216.582 745.015 216.347 745.045C216.116 745.072 215.929 745.095 215.785 745.114C215.436 745.159 215.111 745.233 214.808 745.335C214.508 745.434 214.266 745.583 214.08 745.784C213.898 745.981 213.808 746.25 213.808 746.591C213.808 747.057 213.98 747.409 214.325 747.648C214.673 747.883 215.114 748 215.648 748ZM225.778 740.273V741.409H221.073V740.273H225.778ZM222.482 749V739.068C222.482 738.568 222.6 738.152 222.835 737.818C223.069 737.485 223.374 737.235 223.749 737.068C224.124 736.902 224.52 736.818 224.937 736.818C225.266 736.818 225.535 736.845 225.744 736.898C225.952 736.951 226.107 737 226.21 737.045L225.823 738.205C225.755 738.182 225.66 738.153 225.539 738.119C225.422 738.085 225.266 738.068 225.073 738.068C224.63 738.068 224.31 738.18 224.113 738.403C223.92 738.627 223.823 738.955 223.823 739.386V749H222.482ZM231.543 740.273V741.409H226.839V740.273H231.543ZM228.248 749V739.068C228.248 738.568 228.365 738.152 228.6 737.818C228.835 737.485 229.14 737.235 229.515 737.068C229.89 736.902 230.286 736.818 230.702 736.818C231.032 736.818 231.301 736.845 231.509 736.898C231.718 736.951 231.873 737 231.975 737.045L231.589 738.205C231.521 738.182 231.426 738.153 231.305 738.119C231.187 738.085 231.032 738.068 230.839 738.068C230.396 738.068 230.076 738.18 229.879 738.403C229.685 738.627 229.589 738.955 229.589 739.386V749H228.248Z" fill="black"/>
<rect x="31" y="427" width="298" height="48" rx="4" stroke="#E26868" stroke-width="2"/>
<rect x="46" y="416" width="147" height="21" fill="white"/>
<path d="M57.3026 421.364V433H55.8935V421.364H57.3026ZM61.2869 427.75V433H59.946V424.273H61.2415V425.636H61.3551C61.5597 425.193 61.8703 424.837 62.2869 424.568C62.7036 424.295 63.2415 424.159 63.9006 424.159C64.4915 424.159 65.0085 424.28 65.4517 424.523C65.8949 424.761 66.2396 425.125 66.4858 425.614C66.732 426.098 66.8551 426.712 66.8551 427.455V433H65.5142V427.545C65.5142 426.86 65.3362 426.326 64.9801 425.943C64.6241 425.557 64.1354 425.364 63.5142 425.364C63.0862 425.364 62.7036 425.456 62.3665 425.642C62.0331 425.828 61.7699 426.098 61.5767 426.455C61.3835 426.811 61.2869 427.242 61.2869 427.75ZM69.3054 436.273V424.273H70.6009V425.659H70.7599C70.8584 425.508 70.9948 425.314 71.169 425.08C71.3471 424.841 71.6009 424.629 71.9304 424.443C72.2637 424.254 72.7145 424.159 73.2827 424.159C74.0175 424.159 74.6652 424.343 75.2259 424.71C75.7865 425.078 76.224 425.598 76.5384 426.273C76.8527 426.947 77.0099 427.742 77.0099 428.659C77.0099 429.583 76.8527 430.384 76.5384 431.062C76.224 431.737 75.7884 432.259 75.2315 432.631C74.6747 432.998 74.0327 433.182 73.3054 433.182C72.7448 433.182 72.2959 433.089 71.9588 432.903C71.6217 432.714 71.3622 432.5 71.1804 432.261C70.9986 432.019 70.8584 431.818 70.7599 431.659H70.6463V436.273H69.3054ZM70.6236 428.636C70.6236 429.295 70.7202 429.877 70.9134 430.381C71.1065 430.881 71.3887 431.273 71.7599 431.557C72.1312 431.837 72.5857 431.977 73.1236 431.977C73.6842 431.977 74.152 431.83 74.527 431.534C74.9058 431.235 75.1899 430.833 75.3793 430.33C75.5724 429.822 75.669 429.258 75.669 428.636C75.669 428.023 75.5743 427.47 75.3849 426.977C75.1993 426.481 74.9171 426.089 74.5384 425.801C74.1634 425.509 73.6918 425.364 73.1236 425.364C72.5781 425.364 72.1198 425.502 71.7486 425.778C71.3774 426.051 71.0971 426.434 70.9077 426.926C70.7183 427.415 70.6236 427.985 70.6236 428.636ZM84.5554 429.432V424.273H85.8963V433H84.5554V431.523H84.4645C84.2599 431.966 83.9418 432.343 83.5099 432.653C83.0781 432.96 82.5327 433.114 81.8736 433.114C81.3281 433.114 80.8433 432.994 80.419 432.756C79.9948 432.513 79.6615 432.15 79.419 431.665C79.1766 431.176 79.0554 430.561 79.0554 429.818V424.273H80.3963V429.727C80.3963 430.364 80.5743 430.871 80.9304 431.25C81.2902 431.629 81.7486 431.818 82.3054 431.818C82.6387 431.818 82.9777 431.733 83.3224 431.562C83.6709 431.392 83.9626 431.131 84.1974 430.778C84.4361 430.426 84.5554 429.977 84.5554 429.432ZM92.1477 424.273V425.409H87.625V424.273H92.1477ZM88.9432 422.182H90.2841V430.5C90.2841 430.879 90.339 431.163 90.4489 431.352C90.5625 431.538 90.7064 431.663 90.8807 431.727C91.0587 431.788 91.2462 431.818 91.4432 431.818C91.5909 431.818 91.7121 431.811 91.8068 431.795C91.9015 431.777 91.9773 431.761 92.0341 431.75L92.3068 432.955C92.2159 432.989 92.089 433.023 91.9261 433.057C91.7633 433.095 91.5568 433.114 91.3068 433.114C90.928 433.114 90.5568 433.032 90.1932 432.869C89.8333 432.706 89.5341 432.458 89.2955 432.125C89.0606 431.792 88.9432 431.371 88.9432 430.864V422.182ZM98.2102 422.614V421.364H106.938V422.614H103.278V433H101.869V422.614H98.2102ZM110.311 433.205C109.758 433.205 109.256 433.1 108.805 432.892C108.355 432.68 107.997 432.375 107.732 431.977C107.466 431.576 107.334 431.091 107.334 430.523C107.334 430.023 107.432 429.617 107.629 429.307C107.826 428.992 108.089 428.746 108.419 428.568C108.749 428.39 109.112 428.258 109.51 428.17C109.911 428.08 110.315 428.008 110.72 427.955C111.25 427.886 111.68 427.835 112.01 427.801C112.343 427.763 112.586 427.701 112.737 427.614C112.893 427.527 112.97 427.375 112.97 427.159V427.114C112.97 426.553 112.817 426.117 112.51 425.807C112.207 425.496 111.747 425.341 111.129 425.341C110.489 425.341 109.987 425.481 109.624 425.761C109.26 426.042 109.004 426.341 108.857 426.659L107.584 426.205C107.811 425.674 108.114 425.261 108.493 424.966C108.875 424.667 109.292 424.458 109.743 424.341C110.197 424.22 110.644 424.159 111.084 424.159C111.364 424.159 111.686 424.193 112.05 424.261C112.417 424.326 112.771 424.46 113.112 424.665C113.457 424.869 113.743 425.178 113.97 425.591C114.197 426.004 114.311 426.557 114.311 427.25V433H112.97V431.818H112.902C112.811 432.008 112.66 432.21 112.447 432.426C112.235 432.642 111.953 432.826 111.601 432.977C111.249 433.129 110.819 433.205 110.311 433.205ZM110.516 432C111.046 432 111.493 431.896 111.857 431.688C112.224 431.479 112.5 431.21 112.686 430.881C112.875 430.551 112.97 430.205 112.97 429.841V428.614C112.913 428.682 112.788 428.744 112.595 428.801C112.406 428.854 112.186 428.902 111.936 428.943C111.69 428.981 111.449 429.015 111.214 429.045C110.983 429.072 110.796 429.095 110.652 429.114C110.304 429.159 109.978 429.233 109.675 429.335C109.375 429.434 109.133 429.583 108.947 429.784C108.766 429.981 108.675 430.25 108.675 430.591C108.675 431.057 108.847 431.409 109.192 431.648C109.54 431.883 109.982 432 110.516 432ZM116.94 433V421.364H118.281V425.659H118.395C118.493 425.508 118.63 425.314 118.804 425.08C118.982 424.841 119.236 424.629 119.565 424.443C119.899 424.254 120.349 424.159 120.918 424.159C121.652 424.159 122.3 424.343 122.861 424.71C123.421 425.078 123.859 425.598 124.173 426.273C124.488 426.947 124.645 427.742 124.645 428.659C124.645 429.583 124.488 430.384 124.173 431.062C123.859 431.737 123.423 432.259 122.866 432.631C122.31 432.998 121.668 433.182 120.94 433.182C120.38 433.182 119.931 433.089 119.594 432.903C119.257 432.714 118.997 432.5 118.815 432.261C118.634 432.019 118.493 431.818 118.395 431.659H118.236V433H116.94ZM118.259 428.636C118.259 429.295 118.355 429.877 118.548 430.381C118.741 430.881 119.024 431.273 119.395 431.557C119.766 431.837 120.221 431.977 120.759 431.977C121.319 431.977 121.787 431.83 122.162 431.534C122.541 431.235 122.825 430.833 123.014 430.33C123.207 429.822 123.304 429.258 123.304 428.636C123.304 428.023 123.209 427.47 123.02 426.977C122.834 426.481 122.552 426.089 122.173 425.801C121.798 425.509 121.327 425.364 120.759 425.364C120.213 425.364 119.755 425.502 119.384 425.778C119.012 426.051 118.732 426.434 118.543 426.926C118.353 427.415 118.259 427.985 118.259 428.636ZM128.037 421.364V433H126.696V421.364H128.037ZM134.152 433.182C133.311 433.182 132.586 432.996 131.976 432.625C131.37 432.25 130.902 431.727 130.572 431.057C130.247 430.383 130.084 429.598 130.084 428.705C130.084 427.811 130.247 427.023 130.572 426.341C130.902 425.655 131.36 425.121 131.947 424.739C132.538 424.352 133.228 424.159 134.016 424.159C134.47 424.159 134.919 424.235 135.362 424.386C135.805 424.538 136.209 424.784 136.572 425.125C136.936 425.462 137.226 425.909 137.442 426.466C137.658 427.023 137.766 427.708 137.766 428.523V429.091H131.038V427.932H136.402C136.402 427.439 136.304 427 136.107 426.614C135.913 426.227 135.637 425.922 135.277 425.699C134.921 425.475 134.5 425.364 134.016 425.364C133.482 425.364 133.019 425.496 132.629 425.761C132.243 426.023 131.946 426.364 131.737 426.784C131.529 427.205 131.425 427.655 131.425 428.136V428.909C131.425 429.568 131.538 430.127 131.766 430.585C131.997 431.04 132.317 431.386 132.726 431.625C133.135 431.86 133.61 431.977 134.152 431.977C134.504 431.977 134.822 431.928 135.107 431.83C135.394 431.727 135.643 431.576 135.851 431.375C136.059 431.17 136.22 430.917 136.334 430.614L137.629 430.977C137.493 431.417 137.264 431.803 136.942 432.136C136.62 432.466 136.222 432.723 135.749 432.909C135.275 433.091 134.743 433.182 134.152 433.182ZM153.851 425H152.442C152.358 424.595 152.213 424.239 152.004 423.932C151.8 423.625 151.55 423.367 151.254 423.159C150.963 422.947 150.639 422.788 150.283 422.682C149.927 422.576 149.555 422.523 149.169 422.523C148.464 422.523 147.826 422.701 147.254 423.057C146.686 423.413 146.233 423.938 145.896 424.631C145.563 425.324 145.396 426.174 145.396 427.182C145.396 428.189 145.563 429.04 145.896 429.733C146.233 430.426 146.686 430.951 147.254 431.307C147.826 431.663 148.464 431.841 149.169 431.841C149.555 431.841 149.927 431.788 150.283 431.682C150.639 431.576 150.963 431.419 151.254 431.21C151.55 430.998 151.8 430.739 152.004 430.432C152.213 430.121 152.358 429.765 152.442 429.364H153.851C153.745 429.958 153.552 430.491 153.271 430.96C152.991 431.43 152.643 431.83 152.226 432.159C151.809 432.485 151.341 432.733 150.822 432.903C150.307 433.074 149.756 433.159 149.169 433.159C148.177 433.159 147.294 432.917 146.521 432.432C145.749 431.947 145.141 431.258 144.697 430.364C144.254 429.47 144.033 428.409 144.033 427.182C144.033 425.955 144.254 424.894 144.697 424C145.141 423.106 145.749 422.417 146.521 421.932C147.294 421.447 148.177 421.205 149.169 421.205C149.756 421.205 150.307 421.29 150.822 421.46C151.341 421.631 151.809 421.881 152.226 422.21C152.643 422.536 152.991 422.934 153.271 423.403C153.552 423.869 153.745 424.402 153.851 425ZM159.491 433.182C158.704 433.182 158.012 432.994 157.418 432.619C156.827 432.244 156.365 431.72 156.031 431.045C155.702 430.371 155.537 429.583 155.537 428.682C155.537 427.773 155.702 426.979 156.031 426.301C156.365 425.623 156.827 425.097 157.418 424.722C158.012 424.347 158.704 424.159 159.491 424.159C160.279 424.159 160.969 424.347 161.56 424.722C162.154 425.097 162.616 425.623 162.946 426.301C163.279 426.979 163.446 427.773 163.446 428.682C163.446 429.583 163.279 430.371 162.946 431.045C162.616 431.72 162.154 432.244 161.56 432.619C160.969 432.994 160.279 433.182 159.491 433.182ZM159.491 431.977C160.09 431.977 160.582 431.824 160.969 431.517C161.355 431.21 161.641 430.807 161.827 430.307C162.012 429.807 162.105 429.265 162.105 428.682C162.105 428.098 162.012 427.555 161.827 427.051C161.641 426.547 161.355 426.14 160.969 425.83C160.582 425.519 160.09 425.364 159.491 425.364C158.893 425.364 158.401 425.519 158.014 425.83C157.628 426.14 157.342 426.547 157.156 427.051C156.971 427.555 156.878 428.098 156.878 428.682C156.878 429.265 156.971 429.807 157.156 430.307C157.342 430.807 157.628 431.21 158.014 431.517C158.401 431.824 158.893 431.977 159.491 431.977ZM168.788 433.182C168.061 433.182 167.419 432.998 166.862 432.631C166.305 432.259 165.87 431.737 165.555 431.062C165.241 430.384 165.084 429.583 165.084 428.659C165.084 427.742 165.241 426.947 165.555 426.273C165.87 425.598 166.307 425.078 166.868 424.71C167.429 424.343 168.076 424.159 168.811 424.159C169.379 424.159 169.828 424.254 170.158 424.443C170.491 424.629 170.745 424.841 170.919 425.08C171.097 425.314 171.235 425.508 171.334 425.659H171.447V421.364H172.788V433H171.493V431.659H171.334C171.235 431.818 171.095 432.019 170.913 432.261C170.732 432.5 170.472 432.714 170.135 432.903C169.798 433.089 169.349 433.182 168.788 433.182ZM168.97 431.977C169.508 431.977 169.963 431.837 170.334 431.557C170.705 431.273 170.987 430.881 171.18 430.381C171.374 429.877 171.47 429.295 171.47 428.636C171.47 427.985 171.375 427.415 171.186 426.926C170.997 426.434 170.716 426.051 170.345 425.778C169.974 425.502 169.516 425.364 168.97 425.364C168.402 425.364 167.929 425.509 167.55 425.801C167.175 426.089 166.893 426.481 166.703 426.977C166.518 427.47 166.425 428.023 166.425 428.636C166.425 429.258 166.519 429.822 166.709 430.33C166.902 430.833 167.186 431.235 167.561 431.534C167.94 431.83 168.41 431.977 168.97 431.977ZM179.089 433.182C178.249 433.182 177.523 432.996 176.913 432.625C176.307 432.25 175.839 431.727 175.51 431.057C175.184 430.383 175.021 429.598 175.021 428.705C175.021 427.811 175.184 427.023 175.51 426.341C175.839 425.655 176.298 425.121 176.885 424.739C177.476 424.352 178.165 424.159 178.953 424.159C179.408 424.159 179.857 424.235 180.3 424.386C180.743 424.538 181.146 424.784 181.51 425.125C181.874 425.462 182.163 425.909 182.379 426.466C182.595 427.023 182.703 427.708 182.703 428.523V429.091H175.976V427.932H181.339C181.339 427.439 181.241 427 181.044 426.614C180.851 426.227 180.574 425.922 180.214 425.699C179.858 425.475 179.438 425.364 178.953 425.364C178.419 425.364 177.957 425.496 177.567 425.761C177.18 426.023 176.883 426.364 176.675 426.784C176.466 427.205 176.362 427.655 176.362 428.136V428.909C176.362 429.568 176.476 430.127 176.703 430.585C176.934 431.04 177.254 431.386 177.663 431.625C178.072 431.86 178.548 431.977 179.089 431.977C179.442 431.977 179.76 431.928 180.044 431.83C180.332 431.727 180.58 431.576 180.788 431.375C180.997 431.17 181.158 430.917 181.271 430.614L182.567 430.977C182.43 431.417 182.201 431.803 181.879 432.136C181.557 432.466 181.16 432.723 180.686 432.909C180.213 433.091 179.68 433.182 179.089 433.182Z" fill="#E26868"/>
<rect x="31" y="502" width="298" height="48" rx="4" fill="#FF8787" stroke="#E26868" stroke-width="2"/>
<path d="M161.296 523.273C161.228 522.697 160.951 522.25 160.467 521.932C159.982 521.614 159.387 521.455 158.683 521.455C158.167 521.455 157.717 521.538 157.33 521.705C156.948 521.871 156.648 522.1 156.433 522.392C156.22 522.684 156.114 523.015 156.114 523.386C156.114 523.697 156.188 523.964 156.336 524.188C156.487 524.407 156.681 524.591 156.915 524.739C157.15 524.883 157.397 525.002 157.654 525.097C157.912 525.187 158.148 525.261 158.364 525.318L159.546 525.636C159.849 525.716 160.186 525.826 160.558 525.966C160.933 526.106 161.29 526.297 161.631 526.54C161.976 526.778 162.26 527.085 162.484 527.46C162.707 527.835 162.819 528.295 162.819 528.841C162.819 529.47 162.654 530.038 162.325 530.545C161.999 531.053 161.522 531.456 160.893 531.756C160.268 532.055 159.508 532.205 158.614 532.205C157.781 532.205 157.059 532.07 156.45 531.801C155.844 531.532 155.366 531.157 155.018 530.676C154.673 530.195 154.478 529.636 154.433 529H155.887C155.925 529.439 156.073 529.803 156.33 530.091C156.592 530.375 156.921 530.587 157.319 530.727C157.72 530.864 158.152 530.932 158.614 530.932C159.152 530.932 159.635 530.845 160.063 530.67C160.491 530.492 160.83 530.246 161.08 529.932C161.33 529.614 161.455 529.242 161.455 528.818C161.455 528.432 161.347 528.117 161.131 527.875C160.915 527.633 160.631 527.436 160.279 527.284C159.927 527.133 159.546 527 159.137 526.886L157.705 526.477C156.796 526.216 156.076 525.843 155.546 525.358C155.016 524.873 154.751 524.239 154.751 523.455C154.751 522.803 154.927 522.235 155.279 521.75C155.635 521.261 156.112 520.883 156.711 520.614C157.313 520.341 157.986 520.205 158.728 520.205C159.478 520.205 160.145 520.339 160.728 520.608C161.311 520.873 161.773 521.237 162.114 521.699C162.459 522.161 162.641 522.686 162.66 523.273H161.296ZM170.454 528.432V523.273H171.795V532H170.454V530.523H170.363C170.158 530.966 169.84 531.343 169.408 531.653C168.977 531.96 168.431 532.114 167.772 532.114C167.227 532.114 166.742 531.994 166.317 531.756C165.893 531.513 165.56 531.15 165.317 530.665C165.075 530.176 164.954 529.561 164.954 528.818V523.273H166.295V528.727C166.295 529.364 166.473 529.871 166.829 530.25C167.189 530.629 167.647 530.818 168.204 530.818C168.537 530.818 168.876 530.733 169.221 530.562C169.569 530.392 169.861 530.131 170.096 529.778C170.335 529.426 170.454 528.977 170.454 528.432ZM174.433 532V520.364H175.773V524.659H175.887C175.986 524.508 176.122 524.314 176.296 524.08C176.474 523.841 176.728 523.629 177.058 523.443C177.391 523.254 177.842 523.159 178.41 523.159C179.145 523.159 179.792 523.343 180.353 523.71C180.914 524.078 181.351 524.598 181.665 525.273C181.98 525.947 182.137 526.742 182.137 527.659C182.137 528.583 181.98 529.384 181.665 530.062C181.351 530.737 180.915 531.259 180.359 531.631C179.802 531.998 179.16 532.182 178.433 532.182C177.872 532.182 177.423 532.089 177.086 531.903C176.749 531.714 176.489 531.5 176.308 531.261C176.126 531.019 175.986 530.818 175.887 530.659H175.728V532H174.433ZM175.751 527.636C175.751 528.295 175.847 528.877 176.04 529.381C176.234 529.881 176.516 530.273 176.887 530.557C177.258 530.837 177.713 530.977 178.251 530.977C178.811 530.977 179.279 530.83 179.654 530.534C180.033 530.235 180.317 529.833 180.506 529.33C180.7 528.822 180.796 528.258 180.796 527.636C180.796 527.023 180.701 526.47 180.512 525.977C180.326 525.481 180.044 525.089 179.665 524.801C179.29 524.509 178.819 524.364 178.251 524.364C177.705 524.364 177.247 524.502 176.876 524.778C176.504 525.051 176.224 525.434 176.035 525.926C175.845 526.415 175.751 526.985 175.751 527.636ZM184.188 532V523.273H185.484V524.636H185.597C185.779 524.17 186.073 523.809 186.478 523.551C186.883 523.29 187.37 523.159 187.938 523.159C188.514 523.159 188.993 523.29 189.376 523.551C189.762 523.809 190.063 524.17 190.279 524.636H190.37C190.594 524.186 190.929 523.828 191.376 523.562C191.823 523.294 192.359 523.159 192.984 523.159C193.764 523.159 194.402 523.403 194.898 523.892C195.395 524.377 195.643 525.133 195.643 526.159V532H194.302V526.159C194.302 525.515 194.126 525.055 193.773 524.778C193.421 524.502 193.006 524.364 192.529 524.364C191.915 524.364 191.44 524.549 191.103 524.92C190.766 525.288 190.597 525.754 190.597 526.318V532H189.234V526.023C189.234 525.527 189.073 525.127 188.751 524.824C188.429 524.517 188.014 524.364 187.506 524.364C187.158 524.364 186.832 524.456 186.529 524.642C186.23 524.828 185.987 525.085 185.802 525.415C185.62 525.741 185.529 526.117 185.529 526.545V532H184.188ZM198.094 532V523.273H199.435V532H198.094ZM198.776 521.818C198.515 521.818 198.29 521.729 198.1 521.551C197.915 521.373 197.822 521.159 197.822 520.909C197.822 520.659 197.915 520.445 198.1 520.267C198.29 520.089 198.515 520 198.776 520C199.038 520 199.261 520.089 199.447 520.267C199.636 520.445 199.731 520.659 199.731 520.909C199.731 521.159 199.636 521.373 199.447 521.551C199.261 521.729 199.038 521.818 198.776 521.818ZM205.687 523.273V524.409H201.164V523.273H205.687ZM202.482 521.182H203.823V529.5C203.823 529.879 203.878 530.163 203.988 530.352C204.102 530.538 204.246 530.663 204.42 530.727C204.598 530.788 204.785 530.818 204.982 530.818C205.13 530.818 205.251 530.811 205.346 530.795C205.441 530.777 205.516 530.761 205.573 530.75L205.846 531.955C205.755 531.989 205.628 532.023 205.465 532.057C205.302 532.095 205.096 532.114 204.846 532.114C204.467 532.114 204.096 532.032 203.732 531.869C203.372 531.706 203.073 531.458 202.835 531.125C202.6 530.792 202.482 530.371 202.482 529.864V521.182Z" fill="black"/>
<ellipse cx="180" cy="320.5" rx="150" ry="70.5" fill="#D9D9D9"/>
<g filter="url(#filter0_i_6_2)">
<ellipse cx="180" cy="321" rx="100" ry="47" fill="white"/>
</g>
<path d="M64.2788 318V288.909H80.4719V290.557H66.0543V302.616H79.6055V304.264H66.0543V316.352H80.8129V318H64.2788ZM101.086 300.884L99.4812 301.31C99.2255 300.514 98.8609 299.828 98.3874 299.25C97.9139 298.672 97.3174 298.227 96.5977 297.915C95.8874 297.593 95.0352 297.432 94.0408 297.432C92.4405 297.432 91.1289 297.83 90.1062 298.625C89.0929 299.42 88.5863 300.457 88.5863 301.736C88.5863 302.777 88.9319 303.639 89.6232 304.321C90.3145 304.993 91.3704 305.505 92.7908 305.855L96.1431 306.693C97.8666 307.119 99.1639 307.811 100.035 308.767C100.906 309.714 101.342 310.893 101.342 312.304C101.342 313.507 101.015 314.572 100.362 315.5C99.7085 316.428 98.8041 317.152 97.6488 317.673C96.503 318.194 95.1677 318.455 93.6431 318.455C91.6071 318.455 89.9357 317.981 88.6289 317.034C87.3221 316.078 86.484 314.709 86.1147 312.929L87.7766 312.503C88.0891 313.923 88.7378 315.008 89.7227 315.756C90.717 316.494 92.0191 316.864 93.6289 316.864C95.4092 316.864 96.8439 316.442 97.9329 315.599C99.0314 314.757 99.5806 313.677 99.5806 312.361C99.5806 311.357 99.2586 310.509 98.6147 309.818C97.9708 309.127 96.9954 308.62 95.6886 308.298L92.2085 307.446C90.4281 307.01 89.0929 306.314 88.2028 305.358C87.3126 304.392 86.8675 303.204 86.8675 301.793C86.8675 300.618 87.1753 299.586 87.7908 298.696C88.4064 297.806 89.2539 297.11 90.3335 296.608C91.413 296.106 92.6488 295.855 94.0408 295.855C95.8874 295.855 97.3931 296.291 98.5579 297.162C99.7227 298.033 100.565 299.274 101.086 300.884ZM115.848 318.455C113.879 318.455 112.165 317.967 110.706 316.991C109.248 316.016 108.121 314.681 107.326 312.986C106.53 311.291 106.132 309.359 106.132 307.19C106.132 305.012 106.53 303.071 107.326 301.366C108.131 299.662 109.234 298.317 110.635 297.332C112.037 296.348 113.637 295.855 115.436 295.855C116.658 295.855 117.813 296.101 118.902 296.594C120.001 297.077 120.967 297.777 121.8 298.696C122.643 299.615 123.301 300.723 123.775 302.02C124.257 303.317 124.499 304.776 124.499 306.395V307.474H107.226V305.898H122.766C122.766 304.316 122.444 302.891 121.8 301.622C121.156 300.353 120.28 299.345 119.172 298.597C118.064 297.848 116.819 297.474 115.436 297.474C113.988 297.474 112.695 297.882 111.559 298.696C110.432 299.501 109.537 300.59 108.874 301.963C108.221 303.336 107.88 304.87 107.851 306.565V307.276C107.851 309.094 108.168 310.727 108.803 312.176C109.447 313.616 110.365 314.757 111.559 315.599C112.752 316.433 114.182 316.849 115.848 316.849C117.042 316.849 118.06 316.651 118.902 316.253C119.755 315.846 120.451 315.353 120.99 314.776C121.53 314.198 121.937 313.639 122.212 313.099L123.789 313.739C123.457 314.468 122.941 315.197 122.24 315.926C121.549 316.646 120.668 317.247 119.598 317.73C118.538 318.213 117.288 318.455 115.848 318.455ZM130.465 318V296.182H132.155V299.477H132.326C132.742 298.379 133.462 297.508 134.485 296.864C135.507 296.22 136.739 295.898 138.178 295.898C139.759 295.898 141.033 296.277 141.999 297.034C142.974 297.792 143.675 298.819 144.101 300.116H144.257C144.684 298.838 145.446 297.815 146.544 297.048C147.652 296.281 149.016 295.898 150.635 295.898C152.747 295.898 154.357 296.565 155.465 297.901C156.582 299.226 157.141 301.045 157.141 303.355V318H155.408V303.355C155.408 301.537 154.972 300.107 154.101 299.065C153.23 298.024 151.952 297.503 150.266 297.503C148.467 297.503 147.084 298.066 146.118 299.193C145.152 300.32 144.669 301.755 144.669 303.497V318H142.936V303.241C142.936 301.546 142.51 300.169 141.658 299.108C140.806 298.038 139.527 297.503 137.823 297.503C136.667 297.503 135.668 297.768 134.826 298.298C133.992 298.829 133.344 299.558 132.88 300.486C132.425 301.414 132.198 302.479 132.198 303.682V318H130.465ZM165.838 309.477L165.809 306.991H166.264L177.173 296.182H179.431L169.417 306.125L169.247 306.196L165.838 309.477ZM164.332 318V288.909H166.065V318H164.332ZM177.67 318L168.466 306.366L169.716 305.216L179.886 318H177.67ZM190.348 318.469C189.088 318.469 187.933 318.218 186.882 317.716C185.84 317.214 185.002 316.48 184.368 315.514C183.743 314.548 183.43 313.374 183.43 311.991C183.43 311.082 183.591 310.282 183.913 309.591C184.235 308.9 184.732 308.303 185.404 307.801C186.077 307.299 186.939 306.887 187.99 306.565C189.041 306.234 190.296 305.978 191.754 305.798C192.862 305.666 193.851 305.538 194.723 305.415C195.594 305.282 196.276 305.079 196.768 304.804C197.27 304.529 197.521 304.113 197.521 303.554V302.645C197.521 301.054 197.019 299.79 196.015 298.852C195.011 297.915 193.629 297.446 191.868 297.446C190.305 297.446 188.989 297.792 187.919 298.483C186.858 299.165 186.115 300.045 185.689 301.125L184.055 300.514C184.472 299.473 185.073 298.606 185.859 297.915C186.654 297.223 187.564 296.707 188.586 296.366C189.618 296.026 190.698 295.855 191.825 295.855C192.8 295.855 193.728 295.992 194.609 296.267C195.499 296.542 196.29 296.958 196.981 297.517C197.682 298.076 198.236 298.791 198.643 299.662C199.05 300.524 199.254 301.556 199.254 302.759V318H197.521V314.065H197.393C197.014 314.88 196.493 315.623 195.831 316.295C195.177 316.958 194.386 317.489 193.458 317.886C192.54 318.275 191.503 318.469 190.348 318.469ZM190.518 316.864C191.882 316.864 193.089 316.532 194.14 315.869C195.201 315.197 196.029 314.278 196.626 313.114C197.223 311.949 197.521 310.628 197.521 309.151V305.94C197.303 306.13 196.986 306.3 196.569 306.452C196.162 306.594 195.698 306.722 195.177 306.835C194.666 306.939 194.126 307.034 193.558 307.119C192.999 307.195 192.455 307.266 191.924 307.332C190.333 307.522 189.036 307.815 188.032 308.213C187.038 308.601 186.309 309.113 185.845 309.747C185.39 310.382 185.163 311.149 185.163 312.048C185.163 313.535 185.674 314.709 186.697 315.571C187.72 316.433 188.993 316.864 190.518 316.864Z" fill="#E26868"/>
<path d="M112.4 354V324.909H121.363C123.2 324.909 124.781 325.269 126.107 325.989C127.433 326.708 128.451 327.707 129.161 328.986C129.871 330.255 130.227 331.732 130.227 333.418C130.227 335.084 129.871 336.552 129.161 337.821C128.451 339.08 127.433 340.065 126.107 340.776C124.791 341.486 123.214 341.841 121.377 341.841H113.352V340.179H121.335C122.831 340.179 124.109 339.9 125.17 339.341C126.23 338.782 127.045 338.001 127.613 336.997C128.181 335.984 128.465 334.791 128.465 333.418C128.465 332.035 128.181 330.832 127.613 329.81C127.045 328.777 126.226 327.977 125.156 327.409C124.095 326.841 122.817 326.557 121.32 326.557H114.175V354H112.4ZM124.346 340.818L131.505 354H129.46L122.343 340.818H124.346ZM144.985 354.455C143.015 354.455 141.301 353.967 139.843 352.991C138.385 352.016 137.258 350.681 136.462 348.986C135.667 347.291 135.269 345.359 135.269 343.19C135.269 341.012 135.667 339.071 136.462 337.366C137.267 335.662 138.371 334.317 139.772 333.332C141.174 332.348 142.774 331.855 144.573 331.855C145.795 331.855 146.95 332.101 148.039 332.594C149.138 333.077 150.103 333.777 150.937 334.696C151.78 335.615 152.438 336.723 152.911 338.02C153.394 339.317 153.636 340.776 153.636 342.395V343.474H136.363V341.898H151.903C151.903 340.316 151.581 338.891 150.937 337.622C150.293 336.353 149.417 335.345 148.309 334.597C147.201 333.848 145.956 333.474 144.573 333.474C143.124 333.474 141.832 333.882 140.695 334.696C139.568 335.501 138.674 336.59 138.011 337.963C137.357 339.336 137.016 340.87 136.988 342.565V343.276C136.988 345.094 137.305 346.727 137.94 348.176C138.584 349.616 139.502 350.757 140.695 351.599C141.888 352.433 143.318 352.849 144.985 352.849C146.178 352.849 147.196 352.651 148.039 352.253C148.891 351.846 149.587 351.353 150.127 350.776C150.667 350.198 151.074 349.639 151.349 349.099L152.925 349.739C152.594 350.468 152.078 351.197 151.377 351.926C150.686 352.646 149.805 353.247 148.735 353.73C147.674 354.213 146.424 354.455 144.985 354.455ZM173.465 336.884L171.86 337.31C171.604 336.514 171.24 335.828 170.766 335.25C170.293 334.672 169.696 334.227 168.977 333.915C168.266 333.593 167.414 333.432 166.42 333.432C164.819 333.432 163.508 333.83 162.485 334.625C161.472 335.42 160.965 336.457 160.965 337.736C160.965 338.777 161.311 339.639 162.002 340.321C162.693 340.993 163.749 341.505 165.17 341.855L168.522 342.693C170.246 343.119 171.543 343.811 172.414 344.767C173.285 345.714 173.721 346.893 173.721 348.304C173.721 349.507 173.394 350.572 172.741 351.5C172.087 352.428 171.183 353.152 170.028 353.673C168.882 354.194 167.547 354.455 166.022 354.455C163.986 354.455 162.315 353.981 161.008 353.034C159.701 352.078 158.863 350.709 158.494 348.929L160.156 348.503C160.468 349.923 161.117 351.008 162.102 351.756C163.096 352.494 164.398 352.864 166.008 352.864C167.788 352.864 169.223 352.442 170.312 351.599C171.41 350.757 171.96 349.677 171.96 348.361C171.96 347.357 171.638 346.509 170.994 345.818C170.35 345.127 169.374 344.62 168.067 344.298L164.587 343.446C162.807 343.01 161.472 342.314 160.582 341.358C159.692 340.392 159.246 339.204 159.246 337.793C159.246 336.618 159.554 335.586 160.17 334.696C160.785 333.806 161.633 333.11 162.712 332.608C163.792 332.106 165.028 331.855 166.42 331.855C168.266 331.855 169.772 332.291 170.937 333.162C172.102 334.033 172.944 335.274 173.465 336.884ZM187.432 332.182V333.73H177.901V332.182H187.432ZM181.125 326.955H182.844V348.844C182.844 349.734 183.014 350.463 183.355 351.031C183.705 351.59 184.16 352.007 184.719 352.281C185.287 352.546 185.893 352.679 186.537 352.679C186.849 352.679 187.119 352.655 187.347 352.608C187.583 352.561 187.806 352.499 188.014 352.423L188.44 354C188.175 354.095 187.882 354.175 187.56 354.241C187.238 354.317 186.859 354.355 186.423 354.355C185.514 354.355 184.652 354.152 183.838 353.744C183.033 353.337 182.38 352.745 181.878 351.969C181.376 351.192 181.125 350.255 181.125 349.156V326.955ZM199.641 354.469C198.381 354.469 197.226 354.218 196.175 353.716C195.133 353.214 194.295 352.48 193.661 351.514C193.036 350.548 192.723 349.374 192.723 347.991C192.723 347.082 192.884 346.282 193.206 345.591C193.528 344.9 194.025 344.303 194.697 343.801C195.37 343.299 196.232 342.887 197.283 342.565C198.334 342.234 199.589 341.978 201.047 341.798C202.155 341.666 203.144 341.538 204.016 341.415C204.887 341.282 205.569 341.079 206.061 340.804C206.563 340.529 206.814 340.113 206.814 339.554V338.645C206.814 337.054 206.312 335.79 205.308 334.852C204.304 333.915 202.922 333.446 201.161 333.446C199.598 333.446 198.282 333.792 197.212 334.483C196.151 335.165 195.408 336.045 194.982 337.125L193.348 336.514C193.765 335.473 194.366 334.606 195.152 333.915C195.947 333.223 196.857 332.707 197.879 332.366C198.911 332.026 199.991 331.855 201.118 331.855C202.093 331.855 203.021 331.992 203.902 332.267C204.792 332.542 205.583 332.958 206.274 333.517C206.975 334.076 207.529 334.791 207.936 335.662C208.343 336.524 208.547 337.556 208.547 338.759V354H206.814V350.065H206.686C206.307 350.88 205.786 351.623 205.124 352.295C204.47 352.958 203.679 353.489 202.751 353.886C201.833 354.275 200.796 354.469 199.641 354.469ZM199.811 352.864C201.175 352.864 202.382 352.532 203.433 351.869C204.494 351.197 205.322 350.278 205.919 349.114C206.516 347.949 206.814 346.628 206.814 345.151V341.94C206.596 342.13 206.279 342.3 205.862 342.452C205.455 342.594 204.991 342.722 204.47 342.835C203.959 342.939 203.419 343.034 202.851 343.119C202.292 343.195 201.748 343.266 201.217 343.332C199.626 343.522 198.329 343.815 197.325 344.213C196.331 344.601 195.602 345.113 195.138 345.747C194.683 346.382 194.456 347.149 194.456 348.048C194.456 349.535 194.967 350.709 195.99 351.571C197.013 352.433 198.286 352.864 199.811 352.864ZM229.79 346.259V332.182H231.523V354H229.79V350.463H229.648C229.136 351.59 228.308 352.509 227.162 353.219C226.026 353.929 224.681 354.284 223.128 354.284C221.698 354.284 220.434 353.972 219.335 353.347C218.237 352.722 217.375 351.836 216.75 350.69C216.125 349.535 215.812 348.162 215.812 346.571V332.182H217.545V346.5C217.545 348.318 218.095 349.791 219.193 350.918C220.301 352.035 221.731 352.594 223.483 352.594C224.619 352.594 225.666 352.338 226.622 351.827C227.579 351.315 228.346 350.586 228.923 349.639C229.501 348.683 229.79 347.556 229.79 346.259ZM238.703 354V332.182H240.393V335.591H240.55C241.023 334.473 241.823 333.579 242.95 332.906C244.077 332.224 245.36 331.884 246.8 331.884C246.951 331.884 247.103 331.884 247.254 331.884C247.406 331.884 247.548 331.888 247.68 331.898V333.645C247.567 333.635 247.429 333.621 247.268 333.602C247.117 333.574 246.928 333.56 246.7 333.56C245.488 333.56 244.409 333.82 243.462 334.341C242.524 334.862 241.786 335.581 241.246 336.5C240.706 337.409 240.436 338.451 240.436 339.625V354H238.703ZM258.117 354.469C256.858 354.469 255.702 354.218 254.651 353.716C253.61 353.214 252.772 352.48 252.137 351.514C251.512 350.548 251.2 349.374 251.2 347.991C251.2 347.082 251.361 346.282 251.683 345.591C252.004 344.9 252.502 344.303 253.174 343.801C253.846 343.299 254.708 342.887 255.759 342.565C256.81 342.234 258.065 341.978 259.523 341.798C260.631 341.666 261.621 341.538 262.492 341.415C263.363 341.282 264.045 341.079 264.538 340.804C265.04 340.529 265.29 340.113 265.29 339.554V338.645C265.29 337.054 264.789 335.79 263.785 334.852C262.781 333.915 261.398 333.446 259.637 333.446C258.075 333.446 256.758 333.792 255.688 334.483C254.628 335.165 253.884 336.045 253.458 337.125L251.825 336.514C252.241 335.473 252.843 334.606 253.629 333.915C254.424 333.223 255.333 332.707 256.356 332.366C257.388 332.026 258.468 331.855 259.594 331.855C260.57 331.855 261.498 331.992 262.379 332.267C263.269 332.542 264.059 332.958 264.751 333.517C265.451 334.076 266.005 334.791 266.413 335.662C266.82 336.524 267.023 337.556 267.023 338.759V354H265.29V350.065H265.163C264.784 350.88 264.263 351.623 263.6 352.295C262.947 352.958 262.156 353.489 261.228 353.886C260.309 354.275 259.272 354.469 258.117 354.469ZM258.288 352.864C259.651 352.864 260.859 352.532 261.91 351.869C262.97 351.197 263.799 350.278 264.396 349.114C264.992 347.949 265.29 346.628 265.29 345.151V341.94C265.073 342.13 264.755 342.3 264.339 342.452C263.932 342.594 263.468 342.722 262.947 342.835C262.435 342.939 261.896 343.034 261.327 343.119C260.769 343.195 260.224 343.266 259.694 343.332C258.103 343.522 256.806 343.815 255.802 344.213C254.808 344.601 254.078 345.113 253.614 345.747C253.16 346.382 252.933 347.149 252.933 348.048C252.933 349.535 253.444 350.709 254.467 351.571C255.489 352.433 256.763 352.864 258.288 352.864ZM276.022 339.852V354H274.289V332.182H275.979V335.634H276.15C276.661 334.507 277.48 333.602 278.607 332.92C279.734 332.239 281.074 331.898 282.627 331.898C284.095 331.898 285.383 332.21 286.491 332.835C287.608 333.46 288.479 334.35 289.104 335.506C289.739 336.652 290.056 338.02 290.056 339.611V354H288.323V339.682C288.323 337.826 287.769 336.334 286.661 335.207C285.563 334.071 284.109 333.503 282.3 333.503C281.088 333.503 280.009 333.768 279.062 334.298C278.115 334.829 277.371 335.572 276.832 336.528C276.292 337.475 276.022 338.583 276.022 339.852ZM304.971 332.182V333.73H295.44V332.182H304.971ZM298.664 326.955H300.383V348.844C300.383 349.734 300.553 350.463 300.894 351.031C301.245 351.59 301.699 352.007 302.258 352.281C302.826 352.546 303.432 352.679 304.076 352.679C304.388 352.679 304.658 352.655 304.886 352.608C305.122 352.561 305.345 352.499 305.553 352.423L305.979 354C305.714 354.095 305.421 354.175 305.099 354.241C304.777 354.317 304.398 354.355 303.962 354.355C303.053 354.355 302.192 354.152 301.377 353.744C300.572 353.337 299.919 352.745 299.417 351.969C298.915 351.192 298.664 350.255 298.664 349.156V326.955Z" fill="#E26868"/>
<rect x="0.5" y="0.5" width="359" height="799" stroke="black"/>
<defs>
<filter id="filter0_i_6_2" x="80" y="274" width="200" height="98" filterUnits="userSpaceOnUse" color-interpolation-filters="sRGB">
<feFlood flood-opacity="0" result="BackgroundImageFix"/>
<feBlend mode="normal" in="SourceGraphic" in2="BackgroundImageFix" result="shape"/>
<feColorMatrix in="SourceAlpha" type="matrix" values="0 0 0 0 0 0 0 0 0 0 0 0 0 0 0 0 0 0 127 0" result="hardAlpha"/>
<feOffset dy="4"/>
<feGaussianBlur stdDeviation="2"/>
<feComposite in2="hardAlpha" operator="arithmetic" k2="-1" k3="1"/>
<feColorMatrix type="matrix" values="0 0 0 0 0 0 0 0 0 0 0 0 0 0 0 0 0 0 0.25 0"/>
<feBlend mode="normal" in2="shape" result="effect1_innerShadow_6_2"/>
</filter>
</defs>
</svg>
