<svg width="300" height="300" viewBox="0 0 300 300" fill="none" xmlns="http://www.w3.org/2000/svg">
<g clip-path="url(#clip0_31_409)">
<rect width="300" height="300" fill="white"/>
<rect width="300" height="100" fill="#D8D9CF"/>
<rect y="100" width="300" height="100" fill="#FF8787"/>
<path d="M66.7436 167L72.4709 132.091H75.88L70.1527 167H66.7436ZM50.8572 157.318L51.4027 153.909H77.4482L76.9027 157.318H50.8572ZM54.4709 167L60.1982 132.091H63.6072L57.88 167H54.4709ZM52.9027 145.182L53.4482 141.773H79.4936L78.9482 145.182H52.9027ZM84.5476 167V132.091H105.479V135.841H88.7749V147.636H103.911V151.386H88.7749V167H84.5476ZM112.719 167V132.091H133.651V135.841H116.947V147.636H132.083V151.386H116.947V167H112.719ZM151.46 167.477C149.119 167.477 147.05 167.062 145.255 166.233C143.471 165.392 142.079 164.239 141.079 162.773C140.079 161.295 139.585 159.614 139.596 157.727C139.585 156.25 139.874 154.886 140.465 153.636C141.056 152.375 141.863 151.324 142.886 150.483C143.92 149.631 145.073 149.091 146.346 148.864V148.659C144.675 148.227 143.346 147.29 142.357 145.847C141.369 144.392 140.88 142.739 140.891 140.886C140.88 139.114 141.329 137.528 142.238 136.131C143.147 134.733 144.397 133.631 145.988 132.824C147.59 132.017 149.414 131.614 151.46 131.614C153.482 131.614 155.289 132.017 156.88 132.824C158.471 133.631 159.721 134.733 160.63 136.131C161.55 137.528 162.016 139.114 162.028 140.886C162.016 142.739 161.511 144.392 160.511 145.847C159.522 147.29 158.21 148.227 156.573 148.659V148.864C157.835 149.091 158.971 149.631 159.982 150.483C160.994 151.324 161.8 152.375 162.403 153.636C163.005 154.886 163.312 156.25 163.323 157.727C163.312 159.614 162.8 161.295 161.789 162.773C160.789 164.239 159.397 165.392 157.613 166.233C155.84 167.062 153.789 167.477 151.46 167.477ZM151.46 163.727C153.039 163.727 154.403 163.472 155.55 162.96C156.698 162.449 157.585 161.727 158.21 160.795C158.835 159.864 159.153 158.773 159.164 157.523C159.153 156.205 158.812 155.04 158.141 154.028C157.471 153.017 156.556 152.222 155.397 151.642C154.249 151.062 152.937 150.773 151.46 150.773C149.971 150.773 148.641 151.062 147.471 151.642C146.312 152.222 145.397 153.017 144.727 154.028C144.067 155.04 143.744 156.205 143.755 157.523C143.744 158.773 144.045 159.864 144.658 160.795C145.283 161.727 146.175 162.449 147.335 162.96C148.494 163.472 149.869 163.727 151.46 163.727ZM151.46 147.159C152.71 147.159 153.817 146.909 154.783 146.409C155.761 145.909 156.528 145.21 157.085 144.312C157.641 143.415 157.925 142.364 157.937 141.159C157.925 139.977 157.647 138.949 157.102 138.074C156.556 137.187 155.8 136.506 154.835 136.028C153.869 135.54 152.744 135.295 151.46 135.295C150.153 135.295 149.011 135.54 148.033 136.028C147.056 136.506 146.3 137.187 145.766 138.074C145.232 138.949 144.971 139.977 144.982 141.159C144.971 142.364 145.238 143.415 145.783 144.312C146.34 145.21 147.107 145.909 148.085 146.409C149.062 146.909 150.187 147.159 151.46 147.159ZM170.947 167L186.56 136.114V135.841H168.56V132.091H190.924V136.045L175.379 167H170.947ZM207.756 167.477C205.415 167.477 203.347 167.062 201.552 166.233C199.768 165.392 198.376 164.239 197.376 162.773C196.376 161.295 195.881 159.614 195.893 157.727C195.881 156.25 196.171 154.886 196.762 153.636C197.353 152.375 198.16 151.324 199.183 150.483C200.217 149.631 201.37 149.091 202.643 148.864V148.659C200.972 148.227 199.643 147.29 198.654 145.847C197.665 144.392 197.177 142.739 197.188 140.886C197.177 139.114 197.626 137.528 198.535 136.131C199.444 134.733 200.694 133.631 202.285 132.824C203.887 132.017 205.711 131.614 207.756 131.614C209.779 131.614 211.586 132.017 213.177 132.824C214.768 133.631 216.018 134.733 216.927 136.131C217.847 137.528 218.313 139.114 218.325 140.886C218.313 142.739 217.808 144.392 216.808 145.847C215.819 147.29 214.506 148.227 212.87 148.659V148.864C214.131 149.091 215.268 149.631 216.279 150.483C217.29 151.324 218.097 152.375 218.7 153.636C219.302 154.886 219.609 156.25 219.62 157.727C219.609 159.614 219.097 161.295 218.086 162.773C217.086 164.239 215.694 165.392 213.91 166.233C212.137 167.062 210.086 167.477 207.756 167.477ZM207.756 163.727C209.336 163.727 210.7 163.472 211.847 162.96C212.995 162.449 213.881 161.727 214.506 160.795C215.131 159.864 215.45 158.773 215.461 157.523C215.45 156.205 215.109 155.04 214.438 154.028C213.768 153.017 212.853 152.222 211.694 151.642C210.546 151.062 209.234 150.773 207.756 150.773C206.268 150.773 204.938 151.062 203.768 151.642C202.609 152.222 201.694 153.017 201.023 154.028C200.364 155.04 200.04 156.205 200.052 157.523C200.04 158.773 200.342 159.864 200.955 160.795C201.58 161.727 202.472 162.449 203.631 162.96C204.79 163.472 206.165 163.727 207.756 163.727ZM207.756 147.159C209.006 147.159 210.114 146.909 211.08 146.409C212.058 145.909 212.825 145.21 213.381 144.312C213.938 143.415 214.222 142.364 214.234 141.159C214.222 139.977 213.944 138.949 213.398 138.074C212.853 137.187 212.097 136.506 211.131 136.028C210.165 135.54 209.04 135.295 207.756 135.295C206.45 135.295 205.308 135.54 204.33 136.028C203.353 136.506 202.597 137.187 202.063 138.074C201.529 138.949 201.268 139.977 201.279 141.159C201.268 142.364 201.535 143.415 202.08 144.312C202.637 145.21 203.404 145.909 204.381 146.409C205.359 146.909 206.484 147.159 207.756 147.159ZM227.244 167L242.857 136.114V135.841H224.857V132.091H247.221V136.045L231.675 167H227.244Z" fill="black"/>
<rect y="200" width="300" height="100" fill="#E26868"/>
<path d="M63.1577 267L68.8849 232.091H72.294L66.5668 267H63.1577ZM47.2713 257.318L47.8168 253.909H73.8622L73.3168 257.318H47.2713ZM50.8849 267L56.6122 232.091H60.0213L54.294 267H50.8849ZM49.3168 245.182L49.8622 241.773H75.9077L75.3622 245.182H49.3168ZM80.9616 267V232.091H102.03V235.841H85.1889V247.636H100.939V251.386H85.1889V263.25H102.303V267H80.9616ZM109.036 267V263.932L120.558 251.318C121.911 249.841 123.024 248.557 123.899 247.466C124.774 246.364 125.422 245.33 125.842 244.364C126.274 243.386 126.49 242.364 126.49 241.295C126.49 240.068 126.195 239.006 125.604 238.108C125.024 237.21 124.229 236.517 123.217 236.028C122.206 235.54 121.07 235.295 119.808 235.295C118.467 235.295 117.297 235.574 116.297 236.131C115.308 236.676 114.541 237.443 113.996 238.432C113.462 239.42 113.195 240.58 113.195 241.909H109.172C109.172 239.864 109.643 238.068 110.587 236.523C111.53 234.977 112.814 233.773 114.439 232.909C116.075 232.045 117.911 231.614 119.945 231.614C121.99 231.614 123.803 232.045 125.382 232.909C126.962 233.773 128.2 234.937 129.098 236.403C129.996 237.869 130.445 239.5 130.445 241.295C130.445 242.58 130.212 243.835 129.746 245.062C129.291 246.278 128.496 247.636 127.359 249.136C126.234 250.625 124.672 252.443 122.672 254.591L114.831 262.977V263.25H131.058V267H109.036ZM149.689 267.477C148.257 267.455 146.825 267.182 145.393 266.659C143.962 266.136 142.655 265.256 141.473 264.017C140.291 262.767 139.342 261.08 138.626 258.955C137.911 256.818 137.553 254.136 137.553 250.909C137.553 247.818 137.842 245.08 138.422 242.693C139.001 240.295 139.842 238.278 140.945 236.642C142.047 234.994 143.376 233.744 144.933 232.892C146.501 232.04 148.268 231.614 150.234 231.614C152.189 231.614 153.928 232.006 155.45 232.79C156.984 233.562 158.234 234.642 159.2 236.028C160.166 237.415 160.791 239.011 161.075 240.818H156.916C156.53 239.25 155.78 237.949 154.666 236.915C153.553 235.881 152.075 235.364 150.234 235.364C147.53 235.364 145.399 236.54 143.842 238.892C142.297 241.244 141.518 244.545 141.507 248.795H141.78C142.416 247.83 143.172 247.006 144.047 246.324C144.933 245.631 145.911 245.097 146.979 244.722C148.047 244.347 149.178 244.159 150.371 244.159C152.371 244.159 154.2 244.659 155.859 245.659C157.518 246.648 158.848 248.017 159.848 249.767C160.848 251.506 161.348 253.5 161.348 255.75C161.348 257.909 160.865 259.886 159.899 261.682C158.933 263.466 157.575 264.886 155.825 265.943C154.087 266.989 152.041 267.5 149.689 267.477ZM149.689 263.727C151.121 263.727 152.405 263.369 153.541 262.653C154.689 261.937 155.592 260.977 156.251 259.773C156.922 258.568 157.257 257.227 157.257 255.75C157.257 254.307 156.933 252.994 156.286 251.812C155.649 250.619 154.768 249.67 153.643 248.966C152.53 248.261 151.257 247.909 149.825 247.909C148.746 247.909 147.74 248.125 146.808 248.557C145.876 248.977 145.058 249.557 144.354 250.295C143.661 251.034 143.115 251.881 142.717 252.835C142.32 253.778 142.121 254.773 142.121 255.818C142.121 257.205 142.445 258.5 143.092 259.705C143.751 260.909 144.649 261.881 145.786 262.619C146.933 263.358 148.234 263.727 149.689 263.727ZM179.233 267.477C176.892 267.477 174.824 267.062 173.028 266.233C171.244 265.392 169.852 264.239 168.852 262.773C167.852 261.295 167.358 259.614 167.369 257.727C167.358 256.25 167.648 254.886 168.239 253.636C168.83 252.375 169.636 251.324 170.659 250.483C171.693 249.631 172.847 249.091 174.119 248.864V248.659C172.449 248.227 171.119 247.29 170.131 245.847C169.142 244.392 168.653 242.739 168.665 240.886C168.653 239.114 169.102 237.528 170.011 236.131C170.92 234.733 172.17 233.631 173.761 232.824C175.364 232.017 177.188 231.614 179.233 231.614C181.256 231.614 183.063 232.017 184.653 232.824C186.244 233.631 187.494 234.733 188.403 236.131C189.324 237.528 189.79 239.114 189.801 240.886C189.79 242.739 189.284 244.392 188.284 245.847C187.295 247.29 185.983 248.227 184.347 248.659V248.864C185.608 249.091 186.744 249.631 187.756 250.483C188.767 251.324 189.574 252.375 190.176 253.636C190.778 254.886 191.085 256.25 191.097 257.727C191.085 259.614 190.574 261.295 189.562 262.773C188.562 264.239 187.17 265.392 185.386 266.233C183.614 267.062 181.563 267.477 179.233 267.477ZM179.233 263.727C180.813 263.727 182.176 263.472 183.324 262.96C184.472 262.449 185.358 261.727 185.983 260.795C186.608 259.864 186.926 258.773 186.938 257.523C186.926 256.205 186.585 255.04 185.915 254.028C185.244 253.017 184.33 252.222 183.17 251.642C182.023 251.062 180.71 250.773 179.233 250.773C177.744 250.773 176.415 251.062 175.244 251.642C174.085 252.222 173.17 253.017 172.5 254.028C171.841 255.04 171.517 256.205 171.528 257.523C171.517 258.773 171.818 259.864 172.432 260.795C173.057 261.727 173.949 262.449 175.108 262.96C176.267 263.472 177.642 263.727 179.233 263.727ZM179.233 247.159C180.483 247.159 181.591 246.909 182.557 246.409C183.534 245.909 184.301 245.21 184.858 244.312C185.415 243.415 185.699 242.364 185.71 241.159C185.699 239.977 185.42 238.949 184.875 238.074C184.33 237.187 183.574 236.506 182.608 236.028C181.642 235.54 180.517 235.295 179.233 235.295C177.926 235.295 176.784 235.54 175.807 236.028C174.83 236.506 174.074 237.187 173.54 238.074C173.006 238.949 172.744 239.977 172.756 241.159C172.744 242.364 173.011 243.415 173.557 244.312C174.114 245.21 174.881 245.909 175.858 246.409C176.835 246.909 177.96 247.159 179.233 247.159ZM209.22 267.477C207.788 267.455 206.357 267.182 204.925 266.659C203.493 266.136 202.186 265.256 201.004 264.017C199.822 262.767 198.874 261.08 198.158 258.955C197.442 256.818 197.084 254.136 197.084 250.909C197.084 247.818 197.374 245.08 197.953 242.693C198.533 240.295 199.374 238.278 200.476 236.642C201.578 234.994 202.908 233.744 204.464 232.892C206.033 232.04 207.8 231.614 209.766 231.614C211.72 231.614 213.459 232.006 214.982 232.79C216.516 233.562 217.766 234.642 218.732 236.028C219.697 237.415 220.322 239.011 220.607 240.818H216.447C216.061 239.25 215.311 237.949 214.197 236.915C213.084 235.881 211.607 235.364 209.766 235.364C207.061 235.364 204.93 236.54 203.374 238.892C201.828 241.244 201.05 244.545 201.038 248.795H201.311C201.947 247.83 202.703 247.006 203.578 246.324C204.464 245.631 205.442 245.097 206.51 244.722C207.578 244.347 208.709 244.159 209.902 244.159C211.902 244.159 213.732 244.659 215.391 245.659C217.05 246.648 218.379 248.017 219.379 249.767C220.379 251.506 220.879 253.5 220.879 255.75C220.879 257.909 220.396 259.886 219.43 261.682C218.464 263.466 217.107 264.886 215.357 265.943C213.618 266.989 211.572 267.5 209.22 267.477ZM209.22 263.727C210.652 263.727 211.936 263.369 213.072 262.653C214.22 261.937 215.124 260.977 215.783 259.773C216.453 258.568 216.788 257.227 216.788 255.75C216.788 254.307 216.464 252.994 215.817 251.812C215.18 250.619 214.3 249.67 213.175 248.966C212.061 248.261 210.788 247.909 209.357 247.909C208.277 247.909 207.271 248.125 206.339 248.557C205.408 248.977 204.589 249.557 203.885 250.295C203.192 251.034 202.646 251.881 202.249 252.835C201.851 253.778 201.652 254.773 201.652 255.818C201.652 257.205 201.976 258.5 202.624 259.705C203.283 260.909 204.18 261.881 205.317 262.619C206.464 263.358 207.766 263.727 209.22 263.727ZM238.764 267.477C236.423 267.477 234.355 267.062 232.56 266.233C230.776 265.392 229.384 264.239 228.384 262.773C227.384 261.295 226.889 259.614 226.901 257.727C226.889 256.25 227.179 254.886 227.77 253.636C228.361 252.375 229.168 251.324 230.19 250.483C231.224 249.631 232.378 249.091 233.651 248.864V248.659C231.98 248.227 230.651 247.29 229.662 245.847C228.673 244.392 228.185 242.739 228.196 240.886C228.185 239.114 228.634 237.528 229.543 236.131C230.452 234.733 231.702 233.631 233.293 232.824C234.895 232.017 236.719 231.614 238.764 231.614C240.787 231.614 242.594 232.017 244.185 232.824C245.776 233.631 247.026 234.733 247.935 236.131C248.855 237.528 249.321 239.114 249.332 240.886C249.321 242.739 248.815 244.392 247.815 245.847C246.827 247.29 245.514 248.227 243.878 248.659V248.864C245.139 249.091 246.276 249.631 247.287 250.483C248.298 251.324 249.105 252.375 249.707 253.636C250.31 254.886 250.616 256.25 250.628 257.727C250.616 259.614 250.105 261.295 249.094 262.773C248.094 264.239 246.702 265.392 244.918 266.233C243.145 267.062 241.094 267.477 238.764 267.477ZM238.764 263.727C240.344 263.727 241.707 263.472 242.855 262.96C244.003 262.449 244.889 261.727 245.514 260.795C246.139 259.864 246.457 258.773 246.469 257.523C246.457 256.205 246.116 255.04 245.446 254.028C244.776 253.017 243.861 252.222 242.702 251.642C241.554 251.062 240.241 250.773 238.764 250.773C237.276 250.773 235.946 251.062 234.776 251.642C233.616 252.222 232.702 253.017 232.031 254.028C231.372 255.04 231.048 256.205 231.06 257.523C231.048 258.773 231.349 259.864 231.963 260.795C232.588 261.727 233.48 262.449 234.639 262.96C235.798 263.472 237.173 263.727 238.764 263.727ZM238.764 247.159C240.014 247.159 241.122 246.909 242.088 246.409C243.065 245.909 243.832 245.21 244.389 244.312C244.946 243.415 245.23 242.364 245.241 241.159C245.23 239.977 244.952 238.949 244.406 238.074C243.861 237.187 243.105 236.506 242.139 236.028C241.173 235.54 240.048 235.295 238.764 235.295C237.457 235.295 236.315 235.54 235.338 236.028C234.361 236.506 233.605 237.187 233.071 238.074C232.537 238.949 232.276 239.977 232.287 241.159C232.276 242.364 232.543 243.415 233.088 244.312C233.645 245.21 234.412 245.909 235.389 246.409C236.366 246.909 237.491 247.159 238.764 247.159Z" fill="black"/>
<path d="M55.7514 67L61.4787 32.0909H64.8878L59.1605 67H55.7514ZM39.8651 57.3182L40.4105 53.9091H66.456L65.9105 57.3182H39.8651ZM43.4787 67L49.206 32.0909H52.6151L46.8878 67H43.4787ZM41.9105 45.1818L42.456 41.7727H68.5014L67.956 45.1818H41.9105ZM84.3281 67H73.5554V32.0909H84.8054C88.1918 32.0909 91.0895 32.7898 93.4986 34.1875C95.9077 35.5739 97.7543 37.5682 99.0384 40.1705C100.322 42.7614 100.964 45.8636 100.964 49.4773C100.964 53.1136 100.317 56.2443 99.0213 58.8693C97.7259 61.483 95.8395 63.4943 93.3622 64.9034C90.8849 66.3011 87.8736 67 84.3281 67ZM77.7827 63.25H84.0554C86.9418 63.25 89.3338 62.6932 91.2315 61.5795C93.1293 60.4659 94.544 58.8807 95.4759 56.8239C96.4077 54.767 96.8736 52.3182 96.8736 49.4773C96.8736 46.6591 96.4134 44.233 95.4929 42.1989C94.5724 40.1534 93.1974 38.5852 91.3679 37.4943C89.5384 36.392 87.2599 35.8409 84.5327 35.8409H77.7827V63.25ZM118.624 67.4773C116.283 67.4773 114.214 67.0625 112.419 66.233C110.635 65.392 109.243 64.2386 108.243 62.7727C107.243 61.2955 106.749 59.6136 106.76 57.7273C106.749 56.25 107.038 54.8864 107.629 53.6364C108.22 52.375 109.027 51.3239 110.05 50.483C111.084 49.6307 112.237 49.0909 113.51 48.8636V48.6591C111.839 48.2273 110.51 47.2898 109.521 45.8466C108.533 44.392 108.044 42.7386 108.055 40.8864C108.044 39.1136 108.493 37.5284 109.402 36.1307C110.311 34.733 111.561 33.6307 113.152 32.8239C114.754 32.017 116.578 31.6136 118.624 31.6136C120.646 31.6136 122.453 32.017 124.044 32.8239C125.635 33.6307 126.885 34.733 127.794 36.1307C128.714 37.5284 129.18 39.1136 129.192 40.8864C129.18 42.7386 128.675 44.392 127.675 45.8466C126.686 47.2898 125.374 48.2273 123.737 48.6591V48.8636C124.999 49.0909 126.135 49.6307 127.146 50.483C128.158 51.3239 128.964 52.375 129.567 53.6364C130.169 54.8864 130.476 56.25 130.487 57.7273C130.476 59.6136 129.964 61.2955 128.953 62.7727C127.953 64.2386 126.561 65.392 124.777 66.233C123.004 67.0625 120.953 67.4773 118.624 67.4773ZM118.624 63.7273C120.203 63.7273 121.567 63.4716 122.714 62.9602C123.862 62.4489 124.749 61.7273 125.374 60.7955C125.999 59.8636 126.317 58.7727 126.328 57.5227C126.317 56.2045 125.976 55.0398 125.305 54.0284C124.635 53.017 123.72 52.2216 122.561 51.642C121.413 51.0625 120.101 50.7727 118.624 50.7727C117.135 50.7727 115.805 51.0625 114.635 51.642C113.476 52.2216 112.561 53.017 111.891 54.0284C111.232 55.0398 110.908 56.2045 110.919 57.5227C110.908 58.7727 111.209 59.8636 111.822 60.7955C112.447 61.7273 113.339 62.4489 114.499 62.9602C115.658 63.4716 117.033 63.7273 118.624 63.7273ZM118.624 47.1591C119.874 47.1591 120.982 46.9091 121.947 46.4091C122.925 45.9091 123.692 45.2102 124.249 44.3125C124.805 43.4148 125.089 42.3636 125.101 41.1591C125.089 39.9773 124.811 38.9489 124.266 38.0739C123.72 37.1875 122.964 36.5057 121.999 36.0284C121.033 35.5398 119.908 35.2955 118.624 35.2955C117.317 35.2955 116.175 35.5398 115.197 36.0284C114.22 36.5057 113.464 37.1875 112.93 38.0739C112.396 38.9489 112.135 39.9773 112.146 41.1591C112.135 42.3636 112.402 43.4148 112.947 44.3125C113.504 45.2102 114.271 45.9091 115.249 46.4091C116.226 46.9091 117.351 47.1591 118.624 47.1591ZM148.406 67H137.634V32.0909H148.884C152.27 32.0909 155.168 32.7898 157.577 34.1875C159.986 35.5739 161.832 37.5682 163.116 40.1705C164.401 42.7614 165.043 45.8636 165.043 49.4773C165.043 53.1136 164.395 56.2443 163.099 58.8693C161.804 61.483 159.918 63.4943 157.44 64.9034C154.963 66.3011 151.952 67 148.406 67ZM141.861 63.25H148.134C151.02 63.25 153.412 62.6932 155.31 61.5795C157.207 60.4659 158.622 58.8807 159.554 56.8239C160.486 54.767 160.952 52.3182 160.952 49.4773C160.952 46.6591 160.491 44.233 159.571 42.1989C158.651 40.1534 157.276 38.5852 155.446 37.4943C153.616 36.392 151.338 35.8409 148.611 35.8409H141.861V63.25ZM182.634 31.6136C184.065 31.625 185.497 31.8977 186.929 32.4318C188.361 32.9659 189.668 33.8523 190.849 35.0909C192.031 36.3182 192.98 37.9943 193.696 40.1193C194.412 42.2443 194.77 44.9091 194.77 48.1136C194.77 51.2159 194.474 53.9716 193.884 56.3807C193.304 58.7784 192.463 60.8011 191.361 62.4489C190.27 64.0966 188.94 65.3466 187.372 66.1989C185.815 67.0511 184.054 67.4773 182.088 67.4773C180.134 67.4773 178.389 67.0909 176.855 66.3182C175.332 65.5341 174.082 64.4489 173.105 63.0625C172.139 61.6648 171.52 60.0455 171.247 58.2045H175.406C175.781 59.8068 176.526 61.1307 177.639 62.1761C178.764 63.2102 180.247 63.7273 182.088 63.7273C184.781 63.7273 186.906 62.5511 188.463 60.1989C190.031 57.8466 190.815 54.5227 190.815 50.2273H190.543C189.906 51.1818 189.151 52.0057 188.276 52.6989C187.401 53.392 186.429 53.9261 185.361 54.3011C184.293 54.6761 183.156 54.8636 181.952 54.8636C179.952 54.8636 178.116 54.3693 176.446 53.3807C174.787 52.3807 173.457 51.0114 172.457 49.2727C171.469 47.5227 170.974 45.5227 170.974 43.2727C170.974 41.1364 171.452 39.1818 172.406 37.4091C173.372 35.625 174.724 34.2045 176.463 33.1477C178.213 32.0909 180.27 31.5795 182.634 31.6136ZM182.634 35.3636C181.202 35.3636 179.912 35.7216 178.764 36.4375C177.628 37.142 176.724 38.0966 176.054 39.3011C175.395 40.4943 175.065 41.8182 175.065 43.2727C175.065 44.7273 175.384 46.0511 176.02 47.2443C176.668 48.4261 177.548 49.3693 178.662 50.0739C179.787 50.767 181.065 51.1136 182.497 51.1136C183.577 51.1136 184.582 50.9034 185.514 50.483C186.446 50.0511 187.259 49.4659 187.952 48.7273C188.656 47.9773 189.207 47.1307 189.605 46.1875C190.003 45.233 190.202 44.2386 190.202 43.2045C190.202 41.8409 189.872 40.5625 189.213 39.3693C188.565 38.1761 187.668 37.2102 186.52 36.4716C185.384 35.733 184.088 35.3636 182.634 35.3636ZM230.178 43H225.95C225.7 41.7841 225.263 40.7159 224.638 39.7955C224.024 38.875 223.274 38.1023 222.388 37.4773C221.513 36.8409 220.541 36.3636 219.473 36.0455C218.405 35.7273 217.291 35.5682 216.132 35.5682C214.018 35.5682 212.104 36.1023 210.388 37.1705C208.683 38.2386 207.325 39.8125 206.314 41.892C205.314 43.9716 204.814 46.5227 204.814 49.5455C204.814 52.5682 205.314 55.1193 206.314 57.1989C207.325 59.2784 208.683 60.8523 210.388 61.9205C212.104 62.9886 214.018 63.5227 216.132 63.5227C217.291 63.5227 218.405 63.3636 219.473 63.0455C220.541 62.7273 221.513 62.2557 222.388 61.6307C223.274 60.9943 224.024 60.2159 224.638 59.2955C225.263 58.3636 225.7 57.2955 225.95 56.0909H230.178C229.859 57.875 229.28 59.4716 228.439 60.8807C227.598 62.2898 226.553 63.4886 225.303 64.4773C224.053 65.4545 222.649 66.1989 221.092 66.7102C219.547 67.2216 217.893 67.4773 216.132 67.4773C213.155 67.4773 210.507 66.75 208.189 65.2955C205.871 63.8409 204.047 61.7727 202.717 59.0909C201.388 56.4091 200.723 53.2273 200.723 49.5455C200.723 45.8636 201.388 42.6818 202.717 40C204.047 37.3182 205.871 35.25 208.189 33.7955C210.507 32.3409 213.155 31.6136 216.132 31.6136C217.893 31.6136 219.547 31.8693 221.092 32.3807C222.649 32.892 224.053 33.642 225.303 34.6307C226.553 35.608 227.598 36.8011 228.439 38.2102C229.28 39.608 229.859 41.2045 230.178 43ZM237.009 67V32.0909H257.94V35.8409H241.236V47.6364H256.372V51.3864H241.236V67H237.009Z" fill="black"/>
</g>
<defs>
<clipPath id="clip0_31_409">
<rect width="300" height="300" fill="white"/>
</clipPath>
</defs>
</svg>
